  0
SECTION
  2
HEADER
  9
$ACADVER
  1
AC1027
  9
$ACADMAINTVER
 70
   125
  9
$DWGCODEPAGE
  3
ANSI_1252
  9
$REQUIREDVERSIONS
160
                 0
  9
$INSBASE
 10
0.0
 20
0.0
 30
0.0
  9
$EXTMIN
 10
1.000000000000000E+20
 20
1.000000000000000E+20
 30
1.000000000000000E+20
  9
$EXTMAX
 10
-1.000000000000000E+20
 20
-1.000000000000000E+20
 30
-1.000000000000000E+20
  9
$LIMMIN
 10
0.0
 20
0.0
  9
$LIMMAX
 10
12.0
 20
9.0
  9
$ORTHOMODE
 70
     0
  9
$REGENMODE
 70
     1
  9
$FILLMODE
 70
     1
  9
$QTEXTMODE
 70
     0
  9
$MIRRTEXT
 70
     0
  9
$LTSCALE
 40
1.0
  9
$ATTMODE
 70
     1
  9
$TEXTSIZE
 40
0.2
  9
$TRACEWID
 40
0.05
  9
$TEXTSTYLE
  7
Standard
  9
$CLAYER
  8
0
  9
$CELTYPE
  6
ByLayer
  9
$CECOLOR
 62
   256
  9
$CELTSCALE
 40
1.0
  9
$DISPSILH
 70
     0
  9
$DIMSCALE
 40
1.0
  9
$DIMASZ
 40
0.18
  9
$DIMEXO
 40
0.0625
  9
$DIMDLI
 40
0.38
  9
$DIMRND
 40
0.0
  9
$DIMDLE
 40
0.0
  9
$DIMEXE
 40
0.18
  9
$DIMTP
 40
0.0
  9
$DIMTM
 40
0.0
  9
$DIMTXT
 40
0.18
  9
$DIMCEN
 40
0.09
  9
$DIMTSZ
 40
0.0
  9
$DIMTOL
 70
     0
  9
$DIMLIM
 70
     0
  9
$DIMTIH
 70
     1
  9
$DIMTOH
 70
     1
  9
$DIMSE1
 70
     0
  9
$DIMSE2
 70
     0
  9
$DIMTAD
 70
     0
  9
$DIMZIN
 70
     0
  9
$DIMBLK
  1

  9
$DIMASO
 70
     1
  9
$DIMSHO
 70
     1
  9
$DIMPOST
  1

  9
$DIMAPOST
  1

  9
$DIMALT
 70
     0
  9
$DIMALTD
 70
     2
  9
$DIMALTF
 40
25.4
  9
$DIMLFAC
 40
1.0
  9
$DIMTOFL
 70
     0
  9
$DIMTVP
 40
0.0
  9
$DIMTIX
 70
     0
  9
$DIMSOXD
 70
     0
  9
$DIMSAH
 70
     0
  9
$DIMBLK1
  1

  9
$DIMBLK2
  1

  9
$DIMSTYLE
  2
Standard
  9
$DIMCLRD
 70
     0
  9
$DIMCLRE
 70
     0
  9
$DIMCLRT
 70
     0
  9
$DIMTFAC
 40
1.0
  9
$DIMGAP
 40
0.09
  9
$DIMJUST
 70
     0
  9
$DIMSD1
 70
     0
  9
$DIMSD2
 70
     0
  9
$DIMTOLJ
 70
     1
  9
$DIMTZIN
 70
     0
  9
$DIMALTZ
 70
     0
  9
$DIMALTTZ
 70
     0
  9
$DIMUPT
 70
     0
  9
$DIMDEC
 70
     4
  9
$DIMTDEC
 70
     4
  9
$DIMALTU
 70
     2
  9
$DIMALTTD
 70
     2
  9
$DIMTXSTY
  7
Standard
  9
$DIMAUNIT
 70
     0
  9
$DIMADEC
 70
     0
  9
$DIMALTRND
 40
0.0
  9
$DIMAZIN
 70
     0
  9
$DIMDSEP
 70
    46
  9
$DIMATFIT
 70
     3
  9
$DIMFRAC
 70
     0
  9
$DIMLDRBLK
  1

  9
$DIMLUNIT
 70
     2
  9
$DIMLWD
 70
    -2
  9
$DIMLWE
 70
    -2
  9
$DIMTMOVE
 70
     0
  9
$DIMFXL
 40
1.0
  9
$DIMFXLON
 70
     0
  9
$DIMJOGANG
 40
0.7853981633974483
  9
$DIMTFILL
 70
     0
  9
$DIMTFILLCLR
 70
     0
  9
$DIMARCSYM
 70
     0
  9
$DIMLTYPE
  6

  9
$DIMLTEX1
  6

  9
$DIMLTEX2
  6

  9
$DIMTXTDIRECTION
 70
     0
  9
$LUNITS
 70
     2
  9
$LUPREC
 70
     4
  9
$SKETCHINC
 40
0.1
  9
$FILLETRAD
 40
0.0
  9
$AUNITS
 70
     0
  9
$AUPREC
 70
     0
  9
$MENU
  1
.
  9
$ELEVATION
 40
0.0
  9
$PELEVATION
 40
0.0
  9
$THICKNESS
 40
0.0
  9
$LIMCHECK
 70
     0
  9
$CHAMFERA
 40
0.0
  9
$CHAMFERB
 40
0.0
  9
$CHAMFERC
 40
0.0
  9
$CHAMFERD
 40
0.0
  9
$SKPOLY
 70
     0
  9
$TDCREATE
 40
2459665.682222222
  9
$TDUCREATE
 40
2459665.682222222
  9
$TDUPDATE
 40
2459665.682222222
  9
$TDUUPDATE
 40
2459665.682222222
  9
$TDINDWG
 40
0.0000000000
  9
$TDUSRTIMER
 40
0.0000000000
  9
$USRTIMER
 70
     1
  9
$ANGBASE
 50
0.0
  9
$ANGDIR
 70
     0
  9
$PDMODE
 70
     0
  9
$PDSIZE
 40
0.0
  9
$PLINEWID
 40
0.0
  9
$SPLFRAME
 70
     0
  9
$SPLINETYPE
 70
     6
  9
$SPLINESEGS
 70
     8
  9
$HANDSEED
  5
143
  9
$SURFTAB1
 70
     6
  9
$SURFTAB2
 70
     6
  9
$SURFTYPE
 70
     6
  9
$SURFU
 70
     6
  9
$SURFV
 70
     6
  9
$UCSBASE
  2

  9
$UCSNAME
  2

  9
$UCSORG
 10
0.0
 20
0.0
 30
0.0
  9
$UCSXDIR
 10
1.0
 20
0.0
 30
0.0
  9
$UCSYDIR
 10
0.0
 20
1.0
 30
0.0
  9
$UCSORTHOREF
  2

  9
$UCSORTHOVIEW
 70
     0
  9
$UCSORGTOP
 10
0.0
 20
0.0
 30
0.0
  9
$UCSORGBOTTOM
 10
0.0
 20
0.0
 30
0.0
  9
$UCSORGLEFT
 10
0.0
 20
0.0
 30
0.0
  9
$UCSORGRIGHT
 10
0.0
 20
0.0
 30
0.0
  9
$UCSORGFRONT
 10
0.0
 20
0.0
 30
0.0
  9
$UCSORGBACK
 10
0.0
 20
0.0
 30
0.0
  9
$PUCSBASE
  2

  9
$PUCSNAME
  2

  9
$PUCSORG
 10
0.0
 20
0.0
 30
0.0
  9
$PUCSXDIR
 10
1.0
 20
0.0
 30
0.0
  9
$PUCSYDIR
 10
0.0
 20
1.0
 30
0.0
  9
$PUCSORTHOREF
  2

  9
$PUCSORTHOVIEW
 70
     0
  9
$PUCSORGTOP
 10
0.0
 20
0.0
 30
0.0
  9
$PUCSORGBOTTOM
 10
0.0
 20
0.0
 30
0.0
  9
$PUCSORGLEFT
 10
0.0
 20
0.0
 30
0.0
  9
$PUCSORGRIGHT
 10
0.0
 20
0.0
 30
0.0
  9
$PUCSORGFRONT
 10
0.0
 20
0.0
 30
0.0
  9
$PUCSORGBACK
 10
0.0
 20
0.0
 30
0.0
  9
$USERI1
 70
     0
  9
$USERI2
 70
     0
  9
$USERI3
 70
     0
  9
$USERI4
 70
     0
  9
$USERI5
 70
     0
  9
$USERR1
 40
0.0
  9
$USERR2
 40
0.0
  9
$USERR3
 40
0.0
  9
$USERR4
 40
0.0
  9
$USERR5
 40
0.0
  9
$WORLDVIEW
 70
     1
  9
$SHADEDGE
 70
     3
  9
$SHADEDIF
 70
    70
  9
$TILEMODE
 70
     1
  9
$MAXACTVP
 70
    64
  9
$PINSBASE
 10
0.0
 20
0.0
 30
0.0
  9
$PLIMCHECK
 70
     0
  9
$PEXTMIN
 10
1.000000000000000E+20
 20
1.000000000000000E+20
 30
1.000000000000000E+20
  9
$PEXTMAX
 10
-1.000000000000000E+20
 20
-1.000000000000000E+20
 30
-1.000000000000000E+20
  9
$PLIMMIN
 10
0.0
 20
0.0
  9
$PLIMMAX
 10
12.0
 20
9.0
  9
$UNITMODE
 70
     0
  9
$VISRETAIN
 70
     1
  9
$PLINEGEN
 70
     0
  9
$PSLTSCALE
 70
     1
  9
$TREEDEPTH
 70
  3020
  9
$CMLSTYLE
  2
Standard
  9
$CMLJUST
 70
     0
  9
$CMLSCALE
 40
1.0
  9
$PROXYGRAPHICS
 70
     1
  9
$MEASUREMENT
 70
     0
  9
$CELWEIGHT
370
    -1
  9
$ENDCAPS
280
     0
  9
$JOINSTYLE
280
     0
  9
$LWDISPLAY
290
     0
  9
$INSUNITS
 70
     5
  9
$HYPERLINKBASE
  1

  9
$STYLESHEET
  1

  9
$XEDIT
290
     1
  9
$CEPSNTYPE
380
     0
  9
$PSTYLEMODE
290
     1
  9
$FINGERPRINTGUID
  2
{5C572A1D-818F-AD49-8B2B-2BB4203F0FD3}
  9
$VERSIONGUID
  2
{6A8BA9EC-D4F4-994B-895C-1627BE2712B4}
  9
$EXTNAMES
290
     1
  9
$PSVPSCALE
 40
0.0
  9
$OLESTARTUP
290
     0
  9
$SORTENTS
280
   127
  9
$INDEXCTL
280
     0
  9
$HIDETEXT
280
     1
  9
$XCLIPFRAME
280
     2
  9
$HALOGAP
280
     0
  9
$OBSCOLOR
 70
   257
  9
$OBSLTYPE
280
     0
  9
$INTERSECTIONDISPLAY
280
     0
  9
$INTERSECTIONCOLOR
 70
   257
  9
$DIMASSOC
280
     2
  9
$PROJECTNAME
  1

  9
$CAMERADISPLAY
290
     0
  9
$LENSLENGTH
 40
50.0
  9
$CAMERAHEIGHT
 40
0.0
  9
$STEPSPERSEC
 40
2.0
  9
$STEPSIZE
 40
6.0
  9
$3DDWFPREC
 40
2.0
  9
$PSOLWIDTH
 40
0.25
  9
$PSOLHEIGHT
 40
4.0
  9
$LOFTANG1
 40
1.570796326794896
  9
$LOFTANG2
 40
1.570796326794896
  9
$LOFTMAG1
 40
0.0
  9
$LOFTMAG2
 40
0.0
  9
$LOFTPARAM
 70
     7
  9
$LOFTNORMALS
280
     1
  9
$LATITUDE
 40
37.795
  9
$LONGITUDE
 40
-122.394
  9
$NORTHDIRECTION
 40
0.0
  9
$TIMEZONE
 70
 -8000
  9
$LIGHTGLYPHDISPLAY
280
     1
  9
$TILEMODELIGHTSYNCH
280
     1
  9
$CMATERIAL
347
11
  9
$SOLIDHIST
280
     0
  9
$SHOWHIST
280
     1
  9
$DWFFRAME
280
     2
  9
$DGNFRAME
280
     0
  9
$REALWORLDSCALE
290
     1
  9
$INTERFERECOLOR
 62
     1
  9
$INTERFEREOBJVS
345
33
  9
$INTERFEREVPVS
346
30
  9
$CSHADOW
280
     0
  9
$SHADOWPLANELOCATION
 40
0.0
  0
ENDSEC
  0
SECTION
  2
CLASSES
  0
CLASS
  1
ACDBDICTIONARYWDFLT
  2
AcDbDictionaryWithDefault
  3
ObjectDBX Classes
 90
        0
 91
        1
280
     0
281
     0
  0
CLASS
  1
MATERIAL
  2
AcDbMaterial
  3
ObjectDBX Classes
 90
     1153
 91
        3
280
     0
281
     0
  0
CLASS
  1
VISUALSTYLE
  2
AcDbVisualStyle
  3
ObjectDBX Classes
 90
     4095
 91
       24
280
     0
281
     0
  0
CLASS
  1
SCALE
  2
AcDbScale
  3
ObjectDBX Classes
 90
     1153
 91
       17
280
     0
281
     0
  0
CLASS
  1
TABLESTYLE
  2
AcDbTableStyle
  3
ObjectDBX Classes
 90
     4095
 91
        1
280
     0
281
     0
  0
CLASS
  1
MLEADERSTYLE
  2
AcDbMLeaderStyle
  3
ACDB_MLEADERSTYLE_CLASS
 90
     4095
 91
        1
280
     0
281
     0
  0
CLASS
  1
ACDBSECTIONVIEWSTYLE
  2
AcDbSectionViewStyle
  3
ObjectDBX Classes
 90
     1025
 91
        1
280
     0
281
     0
  0
CLASS
  1
ACDBDETAILVIEWSTYLE
  2
AcDbDetailViewStyle
  3
ObjectDBX Classes
 90
     1025
 91
        1
280
     0
281
     0
  0
CLASS
  1
DICTIONARYVAR
  2
AcDbDictionaryVar
  3
ObjectDBX Classes
 90
        0
 91
        5
280
     0
281
     0
  0
CLASS
  1
CELLSTYLEMAP
  2
AcDbCellStyleMap
  3
ObjectDBX Classes
 90
     1152
 91
        1
280
     0
281
     0
  0
ENDSEC
  0
SECTION
  2
TABLES
  0
TABLE
  2
VPORT
  5
8
330
0
100
AcDbSymbolTable
 70
     1
1001
ACAD
1000
DbSaveVer
1071
      252
  0
VPORT
  5
57
330
8
100
AcDbSymbolTableRecord
100
AcDbViewportTableRecord
  2
*Active
 70
     0
 10
0.0
 20
0.0
 11
1.0
 21
1.0
 12
500.0
 22
500.0
 13
0.0
 23
0.0
 14
1.0
 24
1.0
 15
0.0
 25
0.0
 16
0.0
 26
0.0
 36
1.0
 17
0.0
 27
0.0
 37
0.0
 40
12.0
 41
1.0
 42
50.0
 43
0.0
 44
0.0
 50
0.0
 51
0.0
 71
     0
 72
   100
 73
     1
 74
     1
 75
     0
 76
     0
 77
     0
 78
     0
281
     0
 65
     1
110
0.0
120
0.0
130
0.0
111
1.0
121
0.0
131
0.0
112
0.0
122
1.0
132
0.0
 79
     0
146
0.0
 60
     3
 61
     5
292
     1
282
     1
141
0.0
142
0.0
 63
   250
421
  3355443
  0
ENDTAB
  0
TABLE
  2
LTYPE
  5
5
330
0
100
AcDbSymbolTable
 70
     1
  0
LTYPE
  5
5B
330
5
100
AcDbSymbolTableRecord
100
AcDbLinetypeTableRecord
  2
ByBlock
 70
     0
  3

 72
    65
 73
     0
 40
0.0
  0
LTYPE
  5
5C
330
5
100
AcDbSymbolTableRecord
100
AcDbLinetypeTableRecord
  2
ByLayer
 70
     0
  3

 72
    65
 73
     0
 40
0.0
  0
LTYPE
  5
5D
330
5
100
AcDbSymbolTableRecord
100
AcDbLinetypeTableRecord
  2
Continuous
 70
     0
  3
Solid line
 72
    65
 73
     0
 40
0.0
  0
ENDTAB
  0
TABLE
  2
LAYER
  5
2
330
0
100
AcDbSymbolTable
 70
     2
  0
LAYER
  5
54
330
2
100
AcDbSymbolTableRecord
100
AcDbLayerTableRecord
  2
0
 70
     0
 62
     7
  6
Continuous
370
    -3
390
F
347
21
348
0
  0
LAYER
  5
7A
330
2
100
AcDbSymbolTableRecord
100
AcDbLayerTableRecord
  2
bold_sat_s_et_p_box v3_Sketch1
 70
     0
 62
     7
  6
Continuous
370
    -3
390
F
347
21
348
0
1001
NFusion_SketchTransform
1000
1.000000;0.000000;0.000000;0.000000;0.000000;1.000000;0.000000;0.000000;0.000000;0.000000;1.000000;0.000000;0.000000;0.000000;0.000000;1.000000
  0
ENDTAB
  0
TABLE
  2
STYLE
  5
3
330
0
100
AcDbSymbolTable
 70
     2
  0
STYLE
  5
55
330
3
100
AcDbSymbolTableRecord
100
AcDbTextStyleTableRecord
  2
Standard
 70
     0
 40
0.0
 41
1.0
 50
0.0
 71
     0
 42
0.2
  3
txt
  4

  0
STYLE
  5
5A
330
3
100
AcDbSymbolTableRecord
100
AcDbTextStyleTableRecord
  2
Annotative
 70
     0
 40
0.0
 41
1.0
 50
0.0
 71
     0
 42
0.2
  3
txt
  4

1001
AcadAnnotative
1000
AnnotativeData
1002
{
1070
     1
1070
     1
1002
}
  0
ENDTAB
  0
TABLE
  2
VIEW
  5
6
330
0
100
AcDbSymbolTable
 70
     0
  0
ENDTAB
  0
TABLE
  2
UCS
  5
7
330
0
100
AcDbSymbolTable
 70
     0
  0
ENDTAB
  0
TABLE
  2
APPID
  5
9
330
0
100
AcDbSymbolTable
 70
     4
  0
APPID
  5
56
330
9
100
AcDbSymbolTableRecord
100
AcDbRegAppTableRecord
  2
ACAD
 70
     0
  0
APPID
  5
5E
330
9
100
AcDbSymbolTableRecord
100
AcDbRegAppTableRecord
  2
AcadAnnotative
 70
     0
  0
APPID
  5
78
330
9
100
AcDbSymbolTableRecord
100
AcDbRegAppTableRecord
  2
EDIT_IN_FUSION_ACAD_ADDIN
 70
     0
  0
APPID
  5
79
330
9
100
AcDbSymbolTableRecord
100
AcDbRegAppTableRecord
  2
NFusion_SketchTransform
 70
     0
  0
ENDTAB
  0
TABLE
  2
DIMSTYLE
  5
A
330
0
100
AcDbSymbolTable
 70
     2
100
AcDbDimStyleTable
 71
     0
  0
DIMSTYLE
105
58
330
A
100
AcDbSymbolTableRecord
100
AcDbDimStyleTableRecord
  2
Standard
 70
     0
340
55
  0
DIMSTYLE
105
59
330
A
100
AcDbSymbolTableRecord
100
AcDbDimStyleTableRecord
  2
Annotative
 70
     0
340
55
1001
AcadAnnotative
1000
AnnotativeData
1002
{
1070
     1
1070
     1
1002
}
  0
ENDTAB
  0
TABLE
  2
BLOCK_RECORD
  5
1
330
0
100
AcDbSymbolTable
 70
     1
  0
BLOCK_RECORD
  5
70
330
1
100
AcDbSymbolTableRecord
100
AcDbBlockTableRecord
  2
*Model_Space
340
73
 70
     0
280
     1
281
     0
  0
BLOCK_RECORD
  5
6C
330
1
100
AcDbSymbolTableRecord
100
AcDbBlockTableRecord
  2
*Paper_Space
340
6F
 70
     0
280
     1
281
     0
  0
BLOCK_RECORD
  5
74
330
1
100
AcDbSymbolTableRecord
100
AcDbBlockTableRecord
  2
*Paper_Space0
340
77
 70
     0
280
     1
281
     0
  0
ENDTAB
  0
ENDSEC
  0
SECTION
  2
BLOCKS
  0
BLOCK
  5
71
330
70
100
AcDbEntity
  8
0
100
AcDbBlockBegin
  2
*Model_Space
 70
     0
 10
0.0
 20
0.0
 30
0.0
  3
*Model_Space
  1

  0
ENDBLK
  5
72
330
70
100
AcDbEntity
  8
0
100
AcDbBlockEnd
  0
BLOCK
  5
6D
330
6C
100
AcDbEntity
 67
     1
  8
0
100
AcDbBlockBegin
  2
*Paper_Space
 70
     0
 10
0.0
 20
0.0
 30
0.0
  3
*Paper_Space
  1

  0
ENDBLK
  5
6E
330
6C
100
AcDbEntity
 67
     1
  8
0
100
AcDbBlockEnd
  0
BLOCK
  5
75
330
74
100
AcDbEntity
 67
     1
  8
0
100
AcDbBlockBegin
  2
*Paper_Space0
 70
     0
 10
0.0
 20
0.0
 30
0.0
  3
*Paper_Space0
  1

  0
ENDBLK
  5
76
330
74
100
AcDbEntity
 67
     1
  8
0
100
AcDbBlockEnd
  0
ENDSEC
  0
SECTION
  2
ENTITIES
  0
POINT
  5
7B
330
70
100
AcDbEntity
  8
bold_sat_s_et_p_box v3_Sketch1
100
AcDbPoint
 10
0.0
 20
0.0
 30
0.0
  0
SPLINE
  5
7C
330
70
100
AcDbEntity
  8
bold_sat_s_et_p_box v3_Sketch1
100
AcDbSpline
210
0.0
220
0.0
230
1.0
 70
     8
 71
     2
 72
     6
 73
     3
 74
     0
 42
0.000000001
 43
0.0000000001
 40
0.0
 40
0.0
 40
0.0
 40
1.0
 40
1.0
 40
1.0
 10
4.078308194875717
 20
13.03028631210327
 30
0.0
 10
4.274761050939559
 20
13.11377882957458
 30
0.0
 10
4.551432460546493
 20
13.11377882957458
 30
0.0
  0
SPLINE
  5
7D
330
70
100
AcDbEntity
  8
bold_sat_s_et_p_box v3_Sketch1
100
AcDbSpline
210
0.0
220
0.0
230
1.0
 70
     8
 71
     2
 72
     6
 73
     3
 74
     0
 42
0.000000001
 43
0.0000000001
 40
0.0
 40
0.0
 40
0.0
 40
1.0
 40
1.0
 40
1.0
 10
4.936152786016464
 20
11.13778972625732
 30
0.0
 10
5.055661529302597
 20
11.23765325546264
 30
0.0
 10
5.055661529302597
 20
11.37025904655456
 30
0.0
  0
SPLINE
  5
7E
330
70
100
AcDbEntity
  8
bold_sat_s_et_p_box v3_Sketch1
100
AcDbSpline
210
0.0
220
0.0
230
1.0
 70
     8
 71
     2
 72
     6
 73
     3
 74
     0
 42
0.000000001
 43
0.0000000001
 40
0.0
 40
0.0
 40
0.0
 40
1.0
 40
1.0
 40
1.0
 10
5.00491127371788
 20
11.514324426651
 30
0.0
 10
4.955798000097274
 20
11.5748975276947
 30
0.0
 10
4.831377834081649
 20
11.61909937858581
 30
0.0
  0
SPLINE
  5
7F
330
70
100
AcDbEntity
  8
bold_sat_s_et_p_box v3_Sketch1
100
AcDbSpline
210
0.0
220
0.0
230
1.0
 70
     8
 71
     2
 72
     6
 73
     3
 74
     0
 42
0.000000001
 43
0.0000000001
 40
0.0
 40
0.0
 40
0.0
 40
1.0
 40
1.0
 40
1.0
 10
4.831377834081649
 20
11.61909937858581
 30
0.0
 10
4.746248096227645
 20
11.64856743812561
 30
0.0
 10
4.443383306264877
 20
11.72387433052063
 30
0.0
  0
SPLINE
  5
80
330
70
100
AcDbEntity
  8
bold_sat_s_et_p_box v3_Sketch1
100
AcDbSpline
210
0.0
220
0.0
230
1.0
 70
     8
 71
     2
 72
     6
 73
     3
 74
     0
 42
0.000000001
 43
0.0000000001
 40
0.0
 40
0.0
 40
0.0
 40
1.0
 40
1.0
 40
1.0
 10
4.060299962759017
 20
11.49959063529968
 30
0.0
 10
4.102864831686019
 20
11.26220989227295
 30
0.0
 10
4.232196182012557
 20
11.15088653564453
 30
0.0
  0
SPLINE
  5
81
330
70
100
AcDbEntity
  8
bold_sat_s_et_p_box v3_Sketch1
100
AcDbSpline
210
0.0
220
0.0
230
1.0
 70
     8
 71
     2
 72
     6
 73
     3
 74
     0
 42
0.000000001
 43
0.0000000001
 40
0.0
 40
0.0
 40
0.0
 40
1.0
 40
1.0
 40
1.0
 10
4.656207412481307
 20
12.17080473899841
 30
0.0
 10
5.009822696447372
 20
12.0873122215271
 30
0.0
 10
5.17844471335411
 20
11.99727129936218
 30
0.0
  0
SPLINE
  5
82
330
70
100
AcDbEntity
  8
bold_sat_s_et_p_box v3_Sketch1
100
AcDbSpline
210
0.0
220
0.0
230
1.0
 70
     8
 71
     2
 72
     6
 73
     3
 74
     0
 42
0.000000001
 43
0.0000000001
 40
0.0
 40
0.0
 40
0.0
 40
1.0
 40
1.0
 40
1.0
 10
5.17844471335411
 20
11.99727129936218
 30
0.0
 10
5.34870371222496
 20
11.90886759757995
 30
0.0
 10
5.443656057119369
 20
11.75334239006042
 30
0.0
  0
SPLINE
  5
83
330
70
100
AcDbEntity
  8
bold_sat_s_et_p_box v3_Sketch1
100
AcDbSpline
210
0.0
220
0.0
230
1.0
 70
     8
 71
     2
 72
     6
 73
     3
 74
     0
 42
0.000000001
 43
0.0000000001
 40
0.0
 40
0.0
 40
0.0
 40
1.0
 40
1.0
 40
1.0
 10
5.1015006005764
 20
10.71705293655395
 30
0.0
 10
4.89195093512535
 20
10.63028645515442
 30
0.0
 10
4.579263061285018
 20
10.63028645515442
 30
0.0
  0
SPLINE
  5
84
330
70
100
AcDbEntity
  8
bold_sat_s_et_p_box v3_Sketch1
100
AcDbSpline
210
0.0
220
0.0
230
1.0
 70
     8
 71
     2
 72
     6
 73
     3
 74
     0
 42
0.000000001
 43
0.0000000001
 40
0.0
 40
0.0
 40
0.0
 40
1.0
 40
1.0
 40
1.0
 10
3.880218118429183
 20
10.83983612060547
 30
0.0
 10
3.636289089918136
 20
11.05102300643921
 30
0.0
 10
3.588812917470932
 20
11.45375156402588
 30
0.0
  0
LINE
  5
85
330
70
100
AcDbEntity
  8
bold_sat_s_et_p_box v3_Sketch1
100
AcDbLine
 10
6.951432555913925
 20
11.22619342803955
 30
0.0
 11
7.409822314977645
 21
11.14924931526184
 31
0.0
  0
SPLINE
  5
86
330
70
100
AcDbEntity
  8
bold_sat_s_et_p_box v3_Sketch1
100
AcDbSpline
210
0.0
220
0.0
230
1.0
 70
     8
 71
     2
 72
     6
 73
     3
 74
     0
 42
0.000000001
 43
0.0000000001
 40
0.0
 40
0.0
 40
0.0
 40
1.0
 40
1.0
 40
1.0
 10
6.281855434179306
 20
11.40954947471618
 30
0.0
 10
6.286766856908798
 20
11.20491099357605
 30
0.0
 10
6.393178790807723
 20
11.09031367301941
 30
0.0
  0
SPLINE
  5
87
330
70
100
AcDbEntity
  8
bold_sat_s_et_p_box v3_Sketch1
100
AcDbSpline
210
0.0
220
0.0
230
1.0
 70
     8
 71
     2
 72
     6
 73
     3
 74
     0
 42
0.000000001
 43
0.0000000001
 40
0.0
 40
0.0
 40
0.0
 40
1.0
 40
1.0
 40
1.0
 10
6.658389896154403
 20
10.9773530960083
 30
0.0
 10
6.766439288854598
 20
10.9773530960083
 30
0.0
 10
6.840109199285507
 20
11.03628897666931
 30
0.0
  0
SPLINE
  5
88
330
70
100
AcDbEntity
  8
bold_sat_s_et_p_box v3_Sketch1
100
AcDbSpline
210
0.0
220
0.0
230
1.0
 70
     8
 71
     2
 72
     6
 73
     3
 74
     0
 42
0.000000001
 43
0.0000000001
 40
0.0
 40
0.0
 40
0.0
 40
1.0
 40
1.0
 40
1.0
 10
7.409822314977645
 20
11.14924931526184
 30
0.0
 10
7.321418613195419
 20
10.89713478088379
 30
0.0
 10
7.129876941442489
 20
10.76452922821045
 30
0.0
  0
LINE
  5
89
330
70
100
AcDbEntity
  8
bold_sat_s_et_p_box v3_Sketch1
100
AcDbLine
 10
16.0
 20
16.0
 30
0.0
 11
0.0
 21
16.0
 31
0.0
  0
SPLINE
  5
8A
330
70
100
AcDbEntity
  8
bold_sat_s_et_p_box v3_Sketch1
100
AcDbSpline
210
0.0
220
0.0
230
1.0
 70
     8
 71
     2
 72
     6
 73
     3
 74
     0
 42
0.000000001
 43
0.0000000001
 40
0.0
 40
0.0
 40
0.0
 40
1.0
 40
1.0
 40
1.0
 10
4.584174484014511
 20
11.03956317901611
 30
0.0
 10
4.818281024694442
 20
11.03956317901611
 30
0.0
 10
4.936152786016464
 20
11.13778972625732
 30
0.0
  0
SPLINE
  5
8B
330
70
100
AcDbEntity
  8
bold_sat_s_et_p_box v3_Sketch1
100
AcDbSpline
210
0.0
220
0.0
230
1.0
 70
     8
 71
     2
 72
     6
 73
     3
 74
     0
 42
0.000000001
 43
0.0000000001
 40
0.0
 40
0.0
 40
0.0
 40
1.0
 40
1.0
 40
1.0
 10
3.675579637289047
 20
12.44420170783996
 30
0.0
 10
3.675579637289047
 20
12.62755799293518
 30
0.0
 10
3.778717368841171
 20
12.78635716438293
 30
0.0
  0
LINE
  5
8C
330
70
100
AcDbEntity
  8
bold_sat_s_et_p_box v3_Sketch1
100
AcDbLine
 10
16.0
 20
0.0
 30
0.0
 11
16.0
 21
16.0
 31
0.0
  0
SPLINE
  5
8D
330
70
100
AcDbEntity
  8
bold_sat_s_et_p_box v3_Sketch1
100
AcDbSpline
210
0.0
220
0.0
230
1.0
 70
     8
 71
     2
 72
     6
 73
     3
 74
     0
 42
0.000000001
 43
0.0000000001
 40
0.0
 40
0.0
 40
0.0
 40
1.0
 40
1.0
 40
1.0
 10
3.778717368841171
 20
12.78635716438293
 30
0.0
 10
3.883492320775985
 20
12.94679379463196
 30
0.0
 10
4.078308194875717
 20
13.03028631210327
 30
0.0
  0
SPLINE
  5
8E
330
70
100
AcDbEntity
  8
bold_sat_s_et_p_box v3_Sketch1
100
AcDbSpline
210
0.0
220
0.0
230
1.0
 70
     8
 71
     2
 72
     6
 73
     3
 74
     0
 42
0.000000001
 43
0.0000000001
 40
0.0
 40
0.0
 40
0.0
 40
1.0
 40
1.0
 40
1.0
 10
4.579263061285018
 20
10.63028645515442
 30
0.0
 10
4.12414726614952
 20
10.63028645515442
 30
0.0
 10
3.880218118429183
 20
10.83983612060547
 30
0.0
  0
LINE
  5
8F
330
70
100
AcDbEntity
  8
bold_sat_s_et_p_box v3_Sketch1
100
AcDbLine
 10
5.471486896276473
 20
12.38690304756164
 30
0.0
 11
4.986903041601181
 21
12.36562061309814
 31
0.0
  0
SPLINE
  5
90
330
70
100
AcDbEntity
  8
bold_sat_s_et_p_box v3_Sketch1
100
AcDbSpline
210
0.0
220
0.0
230
1.0
 70
     8
 71
     2
 72
     6
 73
     3
 74
     0
 42
0.000000001
 43
0.0000000001
 40
0.0
 40
0.0
 40
0.0
 40
1.0
 40
1.0
 40
1.0
 10
6.840109199285507
 20
11.03628897666931
 30
0.0
 10
6.913779109716415
 20
11.09522485733032
 30
0.0
 10
6.951432555913925
 20
11.22619342803955
 30
0.0
  0
SPLINE
  5
91
330
70
100
AcDbEntity
  8
bold_sat_s_et_p_box v3_Sketch1
100
AcDbSpline
210
0.0
220
0.0
230
1.0
 70
     8
 71
     2
 72
     6
 73
     3
 74
     0
 42
0.000000001
 43
0.0000000001
 40
0.0
 40
0.0
 40
0.0
 40
1.0
 40
1.0
 40
1.0
 10
4.210913985967636
 20
12.33124136924743
 30
0.0
 10
4.302591890096664
 20
12.25429725646973
 30
0.0
 10
4.656207412481307
 20
12.17080473899841
 30
0.0
  0
SPLINE
  5
92
330
70
100
AcDbEntity
  8
bold_sat_s_et_p_box v3_Sketch1
100
AcDbSpline
210
0.0
220
0.0
230
1.0
 70
     8
 71
     2
 72
     6
 73
     3
 74
     0
 42
0.000000001
 43
0.0000000001
 40
0.0
 40
0.0
 40
0.0
 40
1.0
 40
1.0
 40
1.0
 10
5.425648063421249
 20
10.98553872108459
 30
0.0
 10
5.31105026602745
 20
10.80545687675476
 30
0.0
 10
5.1015006005764
 20
10.71705293655395
 30
0.0
  0
LINE
  5
93
330
70
100
AcDbEntity
  8
bold_sat_s_et_p_box v3_Sketch1
100
AcDbLine
 10
0.0
 20
16.0
 30
0.0
 11
0.0
 21
0.0
 31
0.0
  0
SPLINE
  5
94
330
70
100
AcDbEntity
  8
bold_sat_s_et_p_box v3_Sketch1
100
AcDbSpline
210
0.0
220
0.0
230
1.0
 70
     8
 71
     2
 72
     6
 73
     3
 74
     0
 42
0.000000001
 43
0.0000000001
 40
0.0
 40
0.0
 40
0.0
 40
1.0
 40
1.0
 40
1.0
 10
7.129876941442489
 20
10.76452922821045
 30
0.0
 10
6.939972728490829
 20
10.63356041908264
 30
0.0
 10
6.653478473424911
 20
10.63356041908264
 30
0.0
  0
SPLINE
  5
95
330
70
100
AcDbEntity
  8
bold_sat_s_et_p_box v3_Sketch1
100
AcDbSpline
210
0.0
220
0.0
230
1.0
 70
     8
 71
     2
 72
     6
 73
     3
 74
     0
 42
0.000000001
 43
0.0000000001
 40
0.0
 40
0.0
 40
0.0
 40
1.0
 40
1.0
 40
1.0
 10
6.874488204717636
 20
11.99399709701538
 30
0.0
 10
6.776262134313583
 20
12.09877181053161
 30
0.0
 10
6.63547071814537
 20
12.09877181053161
 30
0.0
  0
SPLINE
  5
96
330
70
100
AcDbEntity
  8
bold_sat_s_et_p_box v3_Sketch1
100
AcDbSpline
210
0.0
220
0.0
230
1.0
 70
     8
 71
     2
 72
     6
 73
     3
 74
     0
 42
0.000000001
 43
0.0000000001
 40
0.0
 40
0.0
 40
0.0
 40
1.0
 40
1.0
 40
1.0
 10
6.386629909276962
 20
11.98908591270447
 30
0.0
 10
6.288403838872909
 20
11.87939953804016
 30
0.0
 10
6.29004082083702
 20
11.69113230705261
 30
0.0
  0
SPLINE
  5
97
330
70
100
AcDbEntity
  8
bold_sat_s_et_p_box v3_Sketch1
100
AcDbSpline
210
0.0
220
0.0
230
1.0
 70
     8
 71
     2
 72
     6
 73
     3
 74
     0
 42
0.000000001
 43
0.0000000001
 40
0.0
 40
0.0
 40
0.0
 40
1.0
 40
1.0
 40
1.0
 10
3.896589130163192
 20
11.96125483512878
 30
0.0
 10
3.675579637289047
 20
12.15934491157532
 30
0.0
 10
3.675579637289047
 20
12.44420170783996
 30
0.0
  0
SPLINE
  5
98
330
70
100
AcDbEntity
  8
bold_sat_s_et_p_box v3_Sketch1
100
AcDbSpline
210
0.0
220
0.0
230
1.0
 70
     8
 71
     2
 72
     6
 73
     3
 74
     0
 42
0.000000001
 43
0.0000000001
 40
0.0
 40
0.0
 40
0.0
 40
1.0
 40
1.0
 40
1.0
 10
6.63547071814537
 20
12.09877181053161
 30
0.0
 10
6.484856456518173
 20
12.09877181053161
 30
0.0
 10
6.386629909276962
 20
11.98908591270447
 30
0.0
  0
LINE
  5
99
330
70
100
AcDbEntity
  8
bold_sat_s_et_p_box v3_Sketch1
100
AcDbLine
 10
0.0
 20
0.0
 30
0.0
 11
16.0
 21
0.0
 31
0.0
  0
SPLINE
  5
9A
330
70
100
AcDbEntity
  8
bold_sat_s_et_p_box v3_Sketch1
100
AcDbSpline
210
0.0
220
0.0
230
1.0
 70
     8
 71
     2
 72
     6
 73
     3
 74
     0
 42
0.000000001
 43
0.0000000001
 40
0.0
 40
0.0
 40
0.0
 40
1.0
 40
1.0
 40
1.0
 10
5.230831950902938
 20
12.91568875312805
 30
0.0
 10
5.460027068853378
 20
12.71759867668152
 30
0.0
 10
5.471486896276473
 20
12.38690304756164
 30
0.0
  0
SPLINE
  5
9B
330
70
100
AcDbEntity
  8
bold_sat_s_et_p_box v3_Sketch1
100
AcDbSpline
210
0.0
220
0.0
230
1.0
 70
     8
 71
     2
 72
     6
 73
     3
 74
     0
 42
0.000000001
 43
0.0000000001
 40
0.0
 40
0.0
 40
0.0
 40
1.0
 40
1.0
 40
1.0
 10
4.986903041601181
 20
12.36562061309814
 30
0.0
 10
4.955798000097274
 20
12.55061364173889
 30
0.0
 10
4.852660030126571
 20
12.6308319568634
 30
0.0
  0
SPLINE
  5
9C
330
70
100
AcDbEntity
  8
bold_sat_s_et_p_box v3_Sketch1
100
AcDbSpline
210
0.0
220
0.0
230
1.0
 70
     8
 71
     2
 72
     6
 73
     3
 74
     0
 42
0.000000001
 43
0.0000000001
 40
0.0
 40
0.0
 40
0.0
 40
1.0
 40
1.0
 40
1.0
 10
4.215825170278549
 20
12.62592053413391
 30
0.0
 10
4.138881057500839
 20
12.57025909423828
 30
0.0
 10
4.138881057500839
 20
12.47694373130798
 30
0.0
  0
SPLINE
  5
9D
330
70
100
AcDbEntity
  8
bold_sat_s_et_p_box v3_Sketch1
100
AcDbSpline
210
0.0
220
0.0
230
1.0
 70
     8
 71
     2
 72
     6
 73
     3
 74
     0
 42
0.000000001
 43
0.0000000001
 40
0.0
 40
0.0
 40
0.0
 40
1.0
 40
1.0
 40
1.0
 10
5.982264369726181
 20
10.92987704277038
 30
0.0
 10
5.81036838889122
 20
11.16725754737854
 30
0.0
 10
5.81036838889122
 20
11.5290584564209
 30
0.0
  0
SPLINE
  5
9E
330
70
100
AcDbEntity
  8
bold_sat_s_et_p_box v3_Sketch1
100
AcDbSpline
210
0.0
220
0.0
230
1.0
 70
     8
 71
     2
 72
     6
 73
     3
 74
     0
 42
0.000000001
 43
0.0000000001
 40
0.0
 40
0.0
 40
0.0
 40
1.0
 40
1.0
 40
1.0
 10
6.607639640569686
 20
12.45075011253357
 30
0.0
 10
6.995634406805038
 20
12.45075011253357
 30
0.0
 10
7.219918102025985
 20
12.1937243938446
 30
0.0
  0
SPLINE
  5
9F
330
70
100
AcDbEntity
  8
bold_sat_s_et_p_box v3_Sketch1
100
AcDbSpline
210
0.0
220
0.0
230
1.0
 70
     8
 71
     2
 72
     6
 73
     3
 74
     0
 42
0.000000001
 43
0.0000000001
 40
0.0
 40
0.0
 40
0.0
 40
1.0
 40
1.0
 40
1.0
 10
5.055661529302597
 20
11.37025904655456
 30
0.0
 10
5.055661529302597
 20
11.45538854598999
 30
0.0
 10
5.00491127371788
 20
11.514324426651
 30
0.0
  0
SPLINE
  5
A0
330
70
100
AcDbEntity
  8
bold_sat_s_et_p_box v3_Sketch1
100
AcDbSpline
210
0.0
220
0.0
230
1.0
 70
     8
 71
     2
 72
     6
 73
     3
 74
     0
 42
0.000000001
 43
0.0000000001
 40
0.0
 40
0.0
 40
0.0
 40
1.0
 40
1.0
 40
1.0
 10
5.81036838889122
 20
11.5290584564209
 30
0.0
 10
5.81036838889122
 20
11.96125483512878
 30
0.0
 10
6.036289066076278
 20
12.20518398284912
 30
0.0
  0
LINE
  5
A1
330
70
100
AcDbEntity
  8
bold_sat_s_et_p_box v3_Sketch1
100
AcDbLine
 10
3.588812917470932
 20
11.45375156402588
 30
0.0
 11
4.060299962759017
 21
11.49959063529968
 31
0.0
  0
SPLINE
  5
A2
330
70
100
AcDbEntity
  8
bold_sat_s_et_p_box v3_Sketch1
100
AcDbSpline
210
0.0
220
0.0
230
1.0
 70
     8
 71
     2
 72
     6
 73
     3
 74
     0
 42
0.000000001
 43
0.0000000001
 40
0.0
 40
0.0
 40
0.0
 40
1.0
 40
1.0
 40
1.0
 10
4.551432460546493
 20
13.11377882957458
 30
0.0
 10
5.003274053335189
 20
13.11377882957458
 30
0.0
 10
5.230831950902938
 20
12.91568875312805
 30
0.0
  0
SPLINE
  5
A3
330
70
100
AcDbEntity
  8
bold_sat_s_et_p_box v3_Sketch1
100
AcDbSpline
210
0.0
220
0.0
230
1.0
 70
     8
 71
     2
 72
     6
 73
     3
 74
     0
 42
0.000000001
 43
0.0000000001
 40
0.0
 40
0.0
 40
0.0
 40
1.0
 40
1.0
 40
1.0
 10
5.54024538397789
 20
11.37189602851867
 30
0.0
 10
5.54024538397789
 20
11.16562056541443
 30
0.0
 10
5.425648063421249
 20
10.98553872108459
 30
0.0
  0
SPLINE
  5
A4
330
70
100
AcDbEntity
  8
bold_sat_s_et_p_box v3_Sketch1
100
AcDbSpline
210
0.0
220
0.0
230
1.0
 70
     8
 71
     2
 72
     6
 73
     3
 74
     0
 42
0.000000001
 43
0.0000000001
 40
0.0
 40
0.0
 40
0.0
 40
1.0
 40
1.0
 40
1.0
 10
7.219918102025985
 20
12.1937243938446
 30
0.0
 10
7.444201797246932
 20
11.93833541870117
 30
0.0
 10
7.434379428625106
 20
11.40954947471618
 30
0.0
  0
SPLINE
  5
A5
330
70
100
AcDbEntity
  8
bold_sat_s_et_p_box v3_Sketch1
100
AcDbSpline
210
0.0
220
0.0
230
1.0
 70
     8
 71
     2
 72
     6
 73
     3
 74
     0
 42
0.000000001
 43
0.0000000001
 40
0.0
 40
0.0
 40
0.0
 40
1.0
 40
1.0
 40
1.0
 10
6.653478473424911
 20
10.63356041908264
 30
0.0
 10
6.199999660253524
 20
10.63356041908264
 30
0.0
 10
5.982264369726181
 20
10.92987704277038
 30
0.0
  0
LINE
  5
A6
330
70
100
AcDbEntity
  8
bold_sat_s_et_p_box v3_Sketch1
100
AcDbLine
 10
7.434379428625106
 20
11.40954947471618
 30
0.0
 11
6.281855434179306
 21
11.40954947471618
 31
0.0
  0
SPLINE
  5
A7
330
70
100
AcDbEntity
  8
bold_sat_s_et_p_box v3_Sketch1
100
AcDbSpline
210
0.0
220
0.0
230
1.0
 70
     8
 71
     2
 72
     6
 73
     3
 74
     0
 42
0.000000001
 43
0.0000000001
 40
0.0
 40
0.0
 40
0.0
 40
1.0
 40
1.0
 40
1.0
 10
6.977626174688339
 20
11.69113230705261
 30
0.0
 10
6.972714751958847
 20
11.89085936546326
 30
0.0
 10
6.874488204717636
 20
11.99399709701538
 30
0.0
  0
SPLINE
  5
A8
330
70
100
AcDbEntity
  8
bold_sat_s_et_p_box v3_Sketch1
100
AcDbSpline
210
0.0
220
0.0
230
1.0
 70
     8
 71
     2
 72
     6
 73
     3
 74
     0
 42
0.000000001
 43
0.0000000001
 40
0.0
 40
0.0
 40
0.0
 40
1.0
 40
1.0
 40
1.0
 10
5.443656057119369
 20
11.75334239006042
 30
0.0
 10
5.54024538397789
 20
11.599454164505
 30
0.0
 10
5.54024538397789
 20
11.37189602851867
 30
0.0
  0
SPLINE
  5
A9
330
70
100
AcDbEntity
  8
bold_sat_s_et_p_box v3_Sketch1
100
AcDbSpline
210
0.0
220
0.0
230
1.0
 70
     8
 71
     2
 72
     6
 73
     3
 74
     0
 42
0.000000001
 43
0.0000000001
 40
0.0
 40
0.0
 40
0.0
 40
1.0
 40
1.0
 40
1.0
 10
6.393178790807723
 20
11.09031367301941
 30
0.0
 10
6.499590724706649
 20
10.9773530960083
 30
0.0
 10
6.658389896154403
 20
10.9773530960083
 30
0.0
  0
LINE
  5
AA
330
70
100
AcDbEntity
  8
bold_sat_s_et_p_box v3_Sketch1
100
AcDbLine
 10
6.29004082083702
 20
11.69113230705261
 30
0.0
 11
6.977626174688339
 21
11.69113230705261
 31
0.0
  0
LINE
  5
AB
330
70
100
AcDbEntity
  8
bold_sat_s_et_p_box v3_Sketch1
100
AcDbLine
 10
7.809276908636093
 20
10.67285108566284
 30
0.0
 11
7.809276908636093
 21
13.07285118103027
 31
0.0
  0
SPLINE
  5
AC
330
70
100
AcDbEntity
  8
bold_sat_s_et_p_box v3_Sketch1
100
AcDbSpline
210
0.0
220
0.0
230
1.0
 70
     8
 71
     2
 72
     6
 73
     3
 74
     0
 42
0.000000001
 43
0.0000000001
 40
0.0
 40
0.0
 40
0.0
 40
1.0
 40
1.0
 40
1.0
 10
4.546521037817001
 20
12.71268725395202
 30
0.0
 10
4.335334151983261
 20
12.71268725395202
 30
0.0
 10
4.215825170278549
 20
12.62592053413391
 30
0.0
  0
SPLINE
  5
AD
330
70
100
AcDbEntity
  8
bold_sat_s_et_p_box v3_Sketch1
100
AcDbSpline
210
0.0
220
0.0
230
1.0
 70
     8
 71
     2
 72
     6
 73
     3
 74
     0
 42
0.000000001
 43
0.0000000001
 40
0.0
 40
0.0
 40
0.0
 40
1.0
 40
1.0
 40
1.0
 10
4.852660030126571
 20
12.6308319568634
 30
0.0
 10
4.751159518957138
 20
12.71268725395202
 30
0.0
 10
4.546521037817001
 20
12.71268725395202
 30
0.0
  0
LINE
  5
AE
330
70
100
AcDbEntity
  8
bold_sat_s_et_p_box v3_Sketch1
100
AcDbLine
 10
7.809276908636093
 20
13.07285118103027
 30
0.0
 11
8.269304126501083
 21
13.07285118103027
 31
0.0
  0
SPLINE
  5
AF
330
70
100
AcDbEntity
  8
bold_sat_s_et_p_box v3_Sketch1
100
AcDbSpline
210
0.0
220
0.0
230
1.0
 70
     8
 71
     2
 72
     6
 73
     3
 74
     0
 42
0.000000001
 43
0.0000000001
 40
0.0
 40
0.0
 40
0.0
 40
1.0
 40
1.0
 40
1.0
 10
4.443383306264877
 20
11.72387433052063
 30
0.0
 10
4.053751558065414
 20
11.82046365737915
 30
0.0
 10
3.896589130163192
 20
11.96125483512878
 30
0.0
  0
LINE
  5
B0
330
70
100
AcDbEntity
  8
bold_sat_s_et_p_box v3_Sketch1
100
AcDbLine
 10
8.269304126501083
 20
13.07285118103027
 30
0.0
 11
8.269304126501083
 21
10.67285108566284
 31
0.0
  0
SPLINE
  5
B1
330
70
100
AcDbEntity
  8
bold_sat_s_et_p_box v3_Sketch1
100
AcDbSpline
210
0.0
220
0.0
230
1.0
 70
     8
 71
     2
 72
     6
 73
     3
 74
     0
 42
0.000000001
 43
0.0000000001
 40
0.0
 40
0.0
 40
0.0
 40
1.0
 40
1.0
 40
1.0
 10
6.036289066076278
 20
12.20518398284912
 30
0.0
 10
6.262209743261337
 20
12.45075011253357
 30
0.0
 10
6.607639640569686
 20
12.45075011253357
 30
0.0
  0
SPLINE
  5
B2
330
70
100
AcDbEntity
  8
bold_sat_s_et_p_box v3_Sketch1
100
AcDbSpline
210
0.0
220
0.0
230
1.0
 70
     8
 71
     2
 72
     6
 73
     3
 74
     0
 42
0.000000001
 43
0.0000000001
 40
0.0
 40
0.0
 40
0.0
 40
1.0
 40
1.0
 40
1.0
 10
4.232196182012557
 20
11.15088653564453
 30
0.0
 10
4.363164991140365
 20
11.03956317901611
 30
0.0
 10
4.584174484014511
 20
11.03956317901611
 30
0.0
  0
SPLINE
  5
B3
330
70
100
AcDbEntity
  8
bold_sat_s_et_p_box v3_Sketch1
100
AcDbSpline
210
0.0
220
0.0
230
1.0
 70
     8
 71
     2
 72
     6
 73
     3
 74
     0
 42
0.000000001
 43
0.0000000001
 40
0.0
 40
0.0
 40
0.0
 40
1.0
 40
1.0
 40
1.0
 10
4.138881057500839
 20
12.47694373130798
 30
0.0
 10
4.138881057500839
 20
12.39181447029114
 30
0.0
 10
4.210913985967636
 20
12.33124136924743
 30
0.0
  0
SPLINE
  5
B4
330
70
100
AcDbEntity
  8
bold_sat_s_et_p_box v3_Sketch1
100
AcDbSpline
210
0.0
220
0.0
230
1.0
 70
     8
 71
     2
 72
     6
 73
     3
 74
     0
 42
0.000000001
 43
0.0000000001
 40
0.0
 40
0.0
 40
0.0
 40
1.0
 40
1.0
 40
1.0
 10
12.14761337637901
 20
11.01500654220581
 30
0.0
 10
12.21145996451378
 20
11.01500654220581
 30
0.0
 10
12.33260521292686
 20
11.0592086315155
 30
0.0
  0
SPLINE
  5
B5
330
70
100
AcDbEntity
  8
bold_sat_s_et_p_box v3_Sketch1
100
AcDbSpline
210
0.0
220
0.0
230
1.0
 70
     8
 71
     2
 72
     6
 73
     3
 74
     0
 42
0.000000001
 43
0.0000000001
 40
0.0
 40
0.0
 40
0.0
 40
1.0
 40
1.0
 40
1.0
 10
3.836834520101547
 20
9.32714819908142
 30
0.0
 10
4.278853744268417
 20
9.32714819908142
 30
0.0
 10
4.413096517324447
 20
9.291131734848022
 30
0.0
  0
SPLINE
  5
B6
330
70
100
AcDbEntity
  8
bold_sat_s_et_p_box v3_Sketch1
100
AcDbSpline
210
0.0
220
0.0
230
1.0
 70
     8
 71
     2
 72
     6
 73
     3
 74
     0
 42
0.000000001
 43
0.0000000001
 40
0.0
 40
0.0
 40
0.0
 40
1.0
 40
1.0
 40
1.0
 10
5.185811609029769
 20
7.821008920669555
 30
0.0
 10
5.185811609029769
 20
8.050204038619995
 30
0.0
 10
5.298771947622299
 20
8.264664888381958
 30
0.0
  0
SPLINE
  5
B7
330
70
100
AcDbEntity
  8
bold_sat_s_et_p_box v3_Sketch1
100
AcDbSpline
210
0.0
220
0.0
230
1.0
 70
     8
 71
     2
 72
     6
 73
     3
 74
     0
 42
0.000000001
 43
0.0000000001
 40
0.0
 40
0.0
 40
0.0
 40
1.0
 40
1.0
 40
1.0
 10
10.36316475272178
 20
12.09877181053161
 30
0.0
 10
10.21255096793175
 20
12.09877181053161
 30
0.0
 10
10.11432442069053
 20
11.98908591270447
 30
0.0
  0
LINE
  5
B8
330
70
100
AcDbEntity
  8
bold_sat_s_et_p_box v3_Sketch1
100
AcDbLine
 10
12.33260521292686
 20
11.0592086315155
 30
0.0
 11
12.3718965947628
 21
10.70231890678406
 31
0.0
  0
LINE
  5
B9
330
70
100
AcDbEntity
  8
bold_sat_s_et_p_box v3_Sketch1
100
AcDbLine
 10
3.543792337179183
 20
7.832468748092651
 30
0.0
 11
3.543792337179183
 21
6.927148103713989
 31
0.0
  0
LINE
  5
BA
330
70
100
AcDbEntity
  8
bold_sat_s_et_p_box v3_Sketch1
100
AcDbLine
 10
3.543792337179183
 20
8.921145677566528
 30
0.0
 11
3.543792337179183
 21
8.240108728408813
 31
0.0
  0
SPLINE
  5
BB
330
70
100
AcDbEntity
  8
bold_sat_s_et_p_box v3_Sketch1
100
AcDbSpline
210
0.0
220
0.0
230
1.0
 70
     8
 71
     2
 72
     6
 73
     3
 74
     0
 42
0.000000001
 43
0.0000000001
 40
0.0
 40
0.0
 40
0.0
 40
1.0
 40
1.0
 40
1.0
 10
4.758526176214218
 20
9.055388212203979
 30
0.0
 10
4.89768037199974
 20
8.875306367874145
 30
0.0
 10
4.89768037199974
 20
8.588812589645385
 30
0.0
  0
SPLINE
  5
BC
330
70
100
AcDbEntity
  8
bold_sat_s_et_p_box v3_Sketch1
100
AcDbSpline
210
0.0
220
0.0
230
1.0
 70
     8
 71
     2
 72
     6
 73
     3
 74
     0
 42
0.000000001
 43
0.0000000001
 40
0.0
 40
0.0
 40
0.0
 40
1.0
 40
1.0
 40
1.0
 10
10.00954994559288
 20
11.40954947471618
 30
0.0
 10
10.01446136832237
 20
11.20491099357605
 30
0.0
 10
10.12087234854698
 20
11.09031367301941
 30
0.0
  0
SPLINE
  5
BD
330
70
100
AcDbEntity
  8
bold_sat_s_et_p_box v3_Sketch1
100
AcDbSpline
210
0.0
220
0.0
230
1.0
 70
     8
 71
     2
 72
     6
 73
     3
 74
     0
 42
0.000000001
 43
0.0000000001
 40
0.0
 40
0.0
 40
0.0
 40
1.0
 40
1.0
 40
1.0
 10
10.33533462882042
 20
12.45075011253357
 30
0.0
 10
10.72332844138145
 20
12.45075011253357
 30
0.0
 10
10.94761261343956
 20
12.1937243938446
 30
0.0
  0
LINE
  5
BE
330
70
100
AcDbEntity
  8
bold_sat_s_et_p_box v3_Sketch1
100
AcDbLine
 10
3.543792337179183
 20
6.927148103713989
 30
0.0
 11
3.059208363294601
 21
6.927148103713989
 31
0.0
  0
LINE
  5
BF
330
70
100
AcDbEntity
  8
bold_sat_s_et_p_box v3_Sketch1
100
AcDbLine
 10
12.01991829276085
 20
13.02537488937378
 30
0.0
 11
12.01991829276085
 21
12.41145968437195
 31
0.0
  0
LINE
  5
C0
330
70
100
AcDbEntity
  8
bold_sat_s_et_p_box v3_Sketch1
100
AcDbLine
 10
12.33424362540245
 20
12.41145968437195
 30
0.0
 11
12.33424362540245
 21
12.04474759101868
 31
0.0
  0
SPLINE
  5
C1
330
70
100
AcDbEntity
  8
bold_sat_s_et_p_box v3_Sketch1
100
AcDbSpline
210
0.0
220
0.0
230
1.0
 70
     8
 71
     2
 72
     6
 73
     3
 74
     0
 42
0.000000001
 43
0.0000000001
 40
0.0
 40
0.0
 40
0.0
 40
1.0
 40
1.0
 40
1.0
 10
4.126602500677108
 20
8.90477442741394
 30
0.0
 10
4.039835780858993
 20
8.921145677566528
 30
0.0
 10
3.777898639440536
 20
8.921145677566528
 30
0.0
  0
SPLINE
  5
C2
330
70
100
AcDbEntity
  8
bold_sat_s_et_p_box v3_Sketch1
100
AcDbSpline
210
0.0
220
0.0
230
1.0
 70
     8
 71
     2
 72
     6
 73
     3
 74
     0
 42
0.000000001
 43
0.0000000001
 40
0.0
 40
0.0
 40
0.0
 40
1.0
 40
1.0
 40
1.0
 10
10.94761261343956
 20
12.1937243938446
 30
0.0
 10
11.17189583182335
 20
11.93833541870117
 30
0.0
 10
11.16207298636436
 20
11.40954947471618
 30
0.0
  0
SPLINE
  5
C3
330
70
100
AcDbEntity
  8
bold_sat_s_et_p_box v3_Sketch1
100
AcDbSpline
210
0.0
220
0.0
230
1.0
 70
     8
 71
     2
 72
     6
 73
     3
 74
     0
 42
0.000000001
 43
0.0000000001
 40
0.0
 40
0.0
 40
0.0
 40
1.0
 40
1.0
 40
1.0
 10
5.298771947622299
 20
8.264664888381958
 30
0.0
 10
5.411732286214828
 20
8.479126214981079
 30
0.0
 10
5.618007987737655
 20
8.592087030410766
 30
0.0
  0
SPLINE
  5
C4
330
70
100
AcDbEntity
  8
bold_sat_s_et_p_box v3_Sketch1
100
AcDbSpline
210
0.0
220
0.0
230
1.0
 70
     8
 71
     2
 72
     6
 73
     3
 74
     0
 42
0.000000001
 43
0.0000000001
 40
0.0
 40
0.0
 40
0.0
 40
1.0
 40
1.0
 40
1.0
 10
10.70532020926475
 20
11.69113230705261
 30
0.0
 10
10.70040878653526
 20
11.89085936546326
 30
0.0
 10
10.60218223929405
 20
11.99399709701538
 30
0.0
  0
SPLINE
  5
C5
330
70
100
AcDbEntity
  8
bold_sat_s_et_p_box v3_Sketch1
100
AcDbSpline
210
0.0
220
0.0
230
1.0
 70
     8
 71
     2
 72
     6
 73
     3
 74
     0
 42
0.000000001
 43
0.0000000001
 40
0.0
 40
0.0
 40
0.0
 40
1.0
 40
1.0
 40
1.0
 10
9.763983577489852
 20
12.20518398284912
 30
0.0
 10
9.989904254674911
 20
12.45075011253357
 30
0.0
 10
10.33533462882042
 20
12.45075011253357
 30
0.0
  0
SPLINE
  5
C6
330
70
100
AcDbEntity
  8
bold_sat_s_et_p_box v3_Sketch1
100
AcDbSpline
210
0.0
220
0.0
230
1.0
 70
     8
 71
     2
 72
     6
 73
     3
 74
     0
 42
0.000000001
 43
0.0000000001
 40
0.0
 40
0.0
 40
0.0
 40
1.0
 40
1.0
 40
1.0
 10
12.06903061270714
 20
11.037926197052
 30
0.0
 10
12.10177406668663
 20
11.01500654220581
 30
0.0
 10
12.14761337637901
 20
11.01500654220581
 30
0.0
  0
SPLINE
  5
C7
330
70
100
AcDbEntity
  8
bold_sat_s_et_p_box v3_Sketch1
100
AcDbSpline
210
0.0
220
0.0
230
1.0
 70
     8
 71
     2
 72
     6
 73
     3
 74
     0
 42
0.000000001
 43
0.0000000001
 40
0.0
 40
0.0
 40
0.0
 40
1.0
 40
1.0
 40
1.0
 10
12.02810272574424
 20
11.09522485733032
 30
0.0
 10
12.03792557120323
 20
11.06084561347961
 30
0.0
 10
12.06903061270714
 20
11.037926197052
 30
0.0
  0
LINE
  5
C8
330
70
100
AcDbEntity
  8
bold_sat_s_et_p_box v3_Sketch1
100
AcDbLine
 10
11.55825409293175
 20
12.04474759101868
 30
0.0
 11
11.34706673026085
 21
12.04474759101868
 31
0.0
  0
SPLINE
  5
C9
330
70
100
AcDbEntity
  8
bold_sat_s_et_p_box v3_Sketch1
100
AcDbSpline
210
0.0
220
0.0
230
1.0
 70
     8
 71
     2
 72
     6
 73
     3
 74
     0
 42
0.000000001
 43
0.0000000001
 40
0.0
 40
0.0
 40
0.0
 40
1.0
 40
1.0
 40
1.0
 10
4.342700809240341
 20
8.395633935928344
 30
0.0
 10
4.39836248755455
 20
8.475852251052856
 30
0.0
 10
4.39836248755455
 20
8.582264184951782
 30
0.0
  0
LINE
  5
CA
330
70
100
AcDbEntity
  8
bold_sat_s_et_p_box v3_Sketch1
100
AcDbLine
 10
11.16207298636436
 20
11.40954947471618
 30
0.0
 11
10.00954994559288
 21
11.40954947471618
 31
0.0
  0
LINE
  5
CB
330
70
100
AcDbEntity
  8
bold_sat_s_et_p_box v3_Sketch1
100
AcDbLine
 10
11.34706673026085
 20
12.04474759101868
 30
0.0
 11
11.34706673026085
 21
12.41145968437195
 31
0.0
  0
LINE
  5
CC
330
70
100
AcDbEntity
  8
bold_sat_s_et_p_box v3_Sketch1
100
AcDbLine
 10
12.01991829276085
 20
12.41145968437195
 30
0.0
 11
12.33424362540245
 21
12.41145968437195
 31
0.0
  0
LINE
  5
CD
330
70
100
AcDbEntity
  8
bold_sat_s_et_p_box v3_Sketch1
100
AcDbLine
 10
3.859753936529159
 20
7.832468748092651
 30
0.0
 11
3.543792337179183
 21
7.832468748092651
 31
0.0
  0
SPLINE
  5
CE
330
70
100
AcDbEntity
  8
bold_sat_s_et_p_box v3_Sketch1
100
AcDbSpline
210
0.0
220
0.0
230
1.0
 70
     8
 71
     2
 72
     6
 73
     3
 74
     0
 42
0.000000001
 43
0.0000000001
 40
0.0
 40
0.0
 40
0.0
 40
1.0
 40
1.0
 40
1.0
 10
10.60218223929405
 20
11.99399709701538
 30
0.0
 10
10.50395569205284
 20
12.09877181053161
 30
0.0
 10
10.36316475272178
 20
12.09877181053161
 30
0.0
  0
SPLINE
  5
CF
330
70
100
AcDbEntity
  8
bold_sat_s_et_p_box v3_Sketch1
100
AcDbSpline
210
0.0
220
0.0
230
1.0
 70
     8
 71
     2
 72
     6
 73
     3
 74
     0
 42
0.000000001
 43
0.0000000001
 40
0.0
 40
0.0
 40
0.0
 40
1.0
 40
1.0
 40
1.0
 10
10.11432442069053
 20
11.98908591270447
 30
0.0
 10
10.01609787344932
 20
11.87939953804016
 30
0.0
 10
10.01773533225059
 20
11.69113230705261
 30
0.0
  0
SPLINE
  5
D0
330
70
100
AcDbEntity
  8
bold_sat_s_et_p_box v3_Sketch1
100
AcDbSpline
210
0.0
220
0.0
230
1.0
 70
     8
 71
     2
 72
     6
 73
     3
 74
     0
 42
0.000000001
 43
0.0000000001
 40
0.0
 40
0.0
 40
0.0
 40
1.0
 40
1.0
 40
1.0
 10
12.3718965947628
 20
10.70231890678406
 30
0.0
 10
12.21145996451378
 20
10.63356041908264
 30
0.0
 10
12.00845894217491
 20
10.63356041908264
 30
0.0
  0
SPLINE
  5
D1
330
70
100
AcDbEntity
  8
bold_sat_s_et_p_box v3_Sketch1
100
AcDbSpline
210
0.0
220
0.0
230
1.0
 70
     8
 71
     2
 72
     6
 73
     3
 74
     0
 42
0.000000001
 43
0.0000000001
 40
0.0
 40
0.0
 40
0.0
 40
1.0
 40
1.0
 40
1.0
 10
4.89768037199974
 20
8.588812589645385
 30
0.0
 10
4.89768037199974
 20
8.367802858352661
 30
0.0
 10
4.817462295293807
 20
8.217189073562622
 30
0.0
  0
SPLINE
  5
D2
330
70
100
AcDbEntity
  8
bold_sat_s_et_p_box v3_Sketch1
100
AcDbSpline
210
0.0
220
0.0
230
1.0
 70
     8
 71
     2
 72
     6
 73
     3
 74
     0
 42
0.000000001
 43
0.0000000001
 40
0.0
 40
0.0
 40
0.0
 40
1.0
 40
1.0
 40
1.0
 10
4.362346023321151
 20
7.866848230361938
 30
0.0
 10
4.188812583684921
 20
7.832468748092651
 30
0.0
 10
3.859753936529159
 20
7.832468748092651
 30
0.0
  0
SPLINE
  5
D3
330
70
100
AcDbEntity
  8
bold_sat_s_et_p_box v3_Sketch1
100
AcDbSpline
210
0.0
220
0.0
230
1.0
 70
     8
 71
     2
 72
     6
 73
     3
 74
     0
 42
0.000000001
 43
0.0000000001
 40
0.0
 40
0.0
 40
0.0
 40
1.0
 40
1.0
 40
1.0
 10
3.809003680944442
 20
8.240108728408813
 30
0.0
 10
4.095497459173202
 20
8.240108728408813
 30
0.0
 10
4.192087024450302
 20
8.277762174606323
 30
0.0
  0
SPLINE
  5
D4
330
70
100
AcDbEntity
  8
bold_sat_s_et_p_box v3_Sketch1
100
AcDbSpline
210
0.0
220
0.0
230
1.0
 70
     8
 71
     2
 72
     6
 73
     3
 74
     0
 42
0.000000001
 43
0.0000000001
 40
0.0
 40
0.0
 40
0.0
 40
1.0
 40
1.0
 40
1.0
 10
4.321418613195419
 20
8.798362493515014
 30
0.0
 10
4.24447426199913
 20
8.88349175453186
 30
0.0
 10
4.126602500677108
 20
8.90477442741394
 30
0.0
  0
LINE
  5
D5
330
70
100
AcDbEntity
  8
bold_sat_s_et_p_box v3_Sketch1
100
AcDbLine
 10
8.269304126501083
 20
10.67285108566284
 30
0.0
 11
7.809276908636093
 21
10.67285108566284
 31
0.0
  0
SPLINE
  5
D6
330
70
100
AcDbEntity
  8
bold_sat_s_et_p_box v3_Sketch1
100
AcDbSpline
210
0.0
220
0.0
230
1.0
 70
     8
 71
     2
 72
     6
 73
     3
 74
     0
 42
0.000000001
 43
0.0000000001
 40
0.0
 40
0.0
 40
0.0
 40
1.0
 40
1.0
 40
1.0
 10
10.38608440756798
 20
10.9773530960083
 30
0.0
 10
10.49413284659385
 20
10.9773530960083
 30
0.0
 10
10.56780323386192
 20
11.03628897666931
 30
0.0
  0
LINE
  5
D7
330
70
100
AcDbEntity
  8
bold_sat_s_et_p_box v3_Sketch1
100
AcDbLine
 10
12.33424362540245
 20
12.04474759101868
 30
0.0
 11
12.01991829276085
 21
12.04474759101868
 31
0.0
  0
SPLINE
  5
D8
330
70
100
AcDbEntity
  8
bold_sat_s_et_p_box v3_Sketch1
100
AcDbSpline
210
0.0
220
0.0
230
1.0
 70
     8
 71
     2
 72
     6
 73
     3
 74
     0
 42
0.000000001
 43
0.0000000001
 40
0.0
 40
0.0
 40
0.0
 40
1.0
 40
1.0
 40
1.0
 10
12.01991829276085
 20
11.34406518936157
 30
0.0
 10
12.01991829276085
 20
11.13124132156372
 30
0.0
 10
12.02810272574424
 20
11.09522485733032
 30
0.0
  0
LINE
  5
D9
330
70
100
AcDbEntity
  8
bold_sat_s_et_p_box v3_Sketch1
100
AcDbLine
 10
10.01773533225059
 20
11.69113230705261
 30
0.0
 11
10.70532020926475
 21
11.69113230705261
 31
0.0
  0
SPLINE
  5
DA
330
70
100
AcDbEntity
  8
bold_sat_s_et_p_box v3_Sketch1
100
AcDbSpline
210
0.0
220
0.0
230
1.0
 70
     8
 71
     2
 72
     6
 73
     3
 74
     0
 42
0.000000001
 43
0.0000000001
 40
0.0
 40
0.0
 40
0.0
 40
1.0
 40
1.0
 40
1.0
 10
11.78417381644249
 20
10.67448830604553
 30
0.0
 10
11.68431076407432
 20
10.71705293655395
 30
0.0
 10
11.63683494925499
 20
10.78253722190857
 30
0.0
  0
LINE
  5
DB
330
70
100
AcDbEntity
  8
bold_sat_s_et_p_box v3_Sketch1
100
AcDbLine
 10
11.34706673026085
 20
12.41145968437195
 30
0.0
 11
11.55825409293175
 21
12.41145968437195
 31
0.0
  0
LINE
  5
DC
330
70
100
AcDbEntity
  8
bold_sat_s_et_p_box v3_Sketch1
100
AcDbLine
 10
3.059208363294601
 20
9.32714819908142
 30
0.0
 11
3.836834520101547
 21
9.32714819908142
 31
0.0
  0
SPLINE
  5
DD
330
70
100
AcDbEntity
  8
bold_sat_s_et_p_box v3_Sketch1
100
AcDbSpline
210
0.0
220
0.0
230
1.0
 70
     8
 71
     2
 72
     6
 73
     3
 74
     0
 42
0.000000001
 43
0.0000000001
 40
0.0
 40
0.0
 40
0.0
 40
1.0
 40
1.0
 40
1.0
 10
4.612823814153671
 20
7.979808568954467
 30
0.0
 10
4.490040630102157
 20
7.894678831100463
 30
0.0
 10
4.362346023321151
 20
7.866848230361938
 30
0.0
  0
LINE
  5
DE
330
70
100
AcDbEntity
  8
bold_sat_s_et_p_box v3_Sketch1
100
AcDbLine
 10
12.01991829276085
 20
12.04474759101868
 30
0.0
 11
12.01991829276085
 21
11.34406518936157
 31
0.0
  0
SPLINE
  5
DF
330
70
100
AcDbEntity
  8
bold_sat_s_et_p_box v3_Sketch1
100
AcDbSpline
210
0.0
220
0.0
230
1.0
 70
     8
 71
     2
 72
     6
 73
     3
 74
     0
 42
0.000000001
 43
0.0000000001
 40
0.0
 40
0.0
 40
0.0
 40
1.0
 40
1.0
 40
1.0
 10
11.13751682639122
 20
11.14924931526184
 30
0.0
 10
11.04911312460899
 20
10.89713478088379
 30
0.0
 10
10.85757145285606
 20
10.76452922821045
 30
0.0
  0
SPLINE
  5
E0
330
70
100
AcDbEntity
  8
bold_sat_s_et_p_box v3_Sketch1
100
AcDbSpline
210
0.0
220
0.0
230
1.0
 70
     8
 71
     2
 72
     6
 73
     3
 74
     0
 42
0.000000001
 43
0.0000000001
 40
0.0
 40
0.0
 40
0.0
 40
1.0
 40
1.0
 40
1.0
 10
9.538062423467636
 20
11.5290584564209
 30
0.0
 10
9.538062423467636
 20
11.96125483512878
 30
0.0
 10
9.763983577489852
 20
12.20518398284912
 30
0.0
  0
SPLINE
  5
E1
330
70
100
AcDbEntity
  8
bold_sat_s_et_p_box v3_Sketch1
100
AcDbSpline
210
0.0
220
0.0
230
1.0
 70
     8
 71
     2
 72
     6
 73
     3
 74
     0
 42
0.000000001
 43
0.0000000001
 40
0.0
 40
0.0
 40
0.0
 40
1.0
 40
1.0
 40
1.0
 10
10.85757145285606
 20
10.76452922821045
 30
0.0
 10
10.6676672399044
 20
10.63356041908264
 30
0.0
 10
10.38117298483848
 20
10.63356041908264
 30
0.0
  0
SPLINE
  5
E2
330
70
100
AcDbEntity
  8
bold_sat_s_et_p_box v3_Sketch1
100
AcDbSpline
210
0.0
220
0.0
230
1.0
 70
     8
 71
     2
 72
     6
 73
     3
 74
     0
 42
0.000000001
 43
0.0000000001
 40
0.0
 40
0.0
 40
0.0
 40
1.0
 40
1.0
 40
1.0
 10
12.00845894217491
 20
10.63356041908264
 30
0.0
 10
11.88403877615928
 20
10.63356041908264
 30
0.0
 10
11.78417381644249
 20
10.67448830604553
 30
0.0
  0
LINE
  5
E3
330
70
100
AcDbEntity
  8
bold_sat_s_et_p_box v3_Sketch1
100
AcDbLine
 10
11.55825409293175
 20
11.28676652908325
 30
0.0
 11
11.55825409293175
 21
12.04474759101868
 31
0.0
  0
SPLINE
  5
E4
330
70
100
AcDbEntity
  8
bold_sat_s_et_p_box v3_Sketch1
100
AcDbSpline
210
0.0
220
0.0
230
1.0
 70
     8
 71
     2
 72
     6
 73
     3
 74
     0
 42
0.000000001
 43
0.0000000001
 40
0.0
 40
0.0
 40
0.0
 40
1.0
 40
1.0
 40
1.0
 10
9.709958881139755
 20
10.92987704277038
 30
0.0
 10
9.538062423467636
 20
11.16725754737854
 30
0.0
 10
9.538062423467636
 20
11.5290584564209
 30
0.0
  0
SPLINE
  5
E5
330
70
100
AcDbEntity
  8
bold_sat_s_et_p_box v3_Sketch1
100
AcDbSpline
210
0.0
220
0.0
230
1.0
 70
     8
 71
     2
 72
     6
 73
     3
 74
     0
 42
0.000000001
 43
0.0000000001
 40
0.0
 40
0.0
 40
0.0
 40
1.0
 40
1.0
 40
1.0
 10
10.12087234854698
 20
11.09031367301941
 30
0.0
 10
10.22728523612022
 20
10.9773530960083
 30
0.0
 10
10.38608440756798
 20
10.9773530960083
 30
0.0
  0
SPLINE
  5
E6
330
70
100
AcDbEntity
  8
bold_sat_s_et_p_box v3_Sketch1
100
AcDbSpline
210
0.0
220
0.0
230
1.0
 70
     8
 71
     2
 72
     6
 73
     3
 74
     0
 42
0.000000001
 43
0.0000000001
 40
0.0
 40
0.0
 40
0.0
 40
1.0
 40
1.0
 40
1.0
 10
10.38117298483848
 20
10.63356041908264
 30
0.0
 10
9.927694171667098
 20
10.63356041908264
 30
0.0
 10
9.709958881139755
 20
10.92987704277038
 30
0.0
  0
LINE
  5
E7
330
70
100
AcDbEntity
  8
bold_sat_s_et_p_box v3_Sketch1
100
AcDbLine
 10
11.55825409293175
 20
12.41145968437195
 30
0.0
 11
11.55825409293175
 21
12.75688934326172
 31
0.0
  0
LINE
  5
E8
330
70
100
AcDbEntity
  8
bold_sat_s_et_p_box v3_Sketch1
100
AcDbLine
 10
11.55825409293175
 20
12.75688934326172
 30
0.0
 11
12.01991829276085
 21
13.02537488937378
 31
0.0
  0
LINE
  5
E9
330
70
100
AcDbEntity
  8
bold_sat_s_et_p_box v3_Sketch1
100
AcDbLine
 10
3.059208363294601
 20
6.927148103713989
 30
0.0
 11
3.059208363294601
 21
9.32714819908142
 31
0.0
  0
SPLINE
  5
EA
330
70
100
AcDbEntity
  8
bold_sat_s_et_p_box v3_Sketch1
100
AcDbSpline
210
0.0
220
0.0
230
1.0
 70
     8
 71
     2
 72
     6
 73
     3
 74
     0
 42
0.000000001
 43
0.0000000001
 40
0.0
 40
0.0
 40
0.0
 40
1.0
 40
1.0
 40
1.0
 10
4.413096517324447
 20
9.291131734848022
 30
0.0
 10
4.619372218847274
 20
9.237107515335083
 30
0.0
 10
4.758526176214218
 20
9.055388212203979
 30
0.0
  0
SPLINE
  5
EB
330
70
100
AcDbEntity
  8
bold_sat_s_et_p_box v3_Sketch1
100
AcDbSpline
210
0.0
220
0.0
230
1.0
 70
     8
 71
     2
 72
     6
 73
     3
 74
     0
 42
0.000000001
 43
0.0000000001
 40
0.0
 40
0.0
 40
0.0
 40
1.0
 40
1.0
 40
1.0
 10
10.56780323386192
 20
11.03628897666931
 30
0.0
 10
10.64147362112999
 20
11.09522485733032
 30
0.0
 10
10.67912659049034
 20
11.22619342803955
 30
0.0
  0
SPLINE
  5
EC
330
70
100
AcDbEntity
  8
bold_sat_s_et_p_box v3_Sketch1
100
AcDbSpline
210
0.0
220
0.0
230
1.0
 70
     8
 71
     2
 72
     6
 73
     3
 74
     0
 42
0.000000001
 43
0.0000000001
 40
0.0
 40
0.0
 40
0.0
 40
1.0
 40
1.0
 40
1.0
 10
11.63683494925499
 20
10.78253722190857
 30
0.0
 10
11.5909956395626
 20
10.84965872764587
 30
0.0
 10
11.57298836112022
 20
10.9626190662384
 30
0.0
  0
SPLINE
  5
ED
330
70
100
AcDbEntity
  8
bold_sat_s_et_p_box v3_Sketch1
100
AcDbSpline
210
0.0
220
0.0
230
1.0
 70
     8
 71
     2
 72
     6
 73
     3
 74
     0
 42
0.000000001
 43
0.0000000001
 40
0.0
 40
0.0
 40
0.0
 40
1.0
 40
1.0
 40
1.0
 10
11.57298836112022
 20
10.9626190662384
 30
0.0
 10
11.55825409293175
 20
11.04283738136291
 30
0.0
 10
11.55825409293175
 20
11.28676652908325
 30
0.0
  0
SPLINE
  5
EE
330
70
100
AcDbEntity
  8
bold_sat_s_et_p_box v3_Sketch1
100
AcDbSpline
210
0.0
220
0.0
230
1.0
 70
     8
 71
     2
 72
     6
 73
     3
 74
     0
 42
0.000000001
 43
0.0000000001
 40
0.0
 40
0.0
 40
0.0
 40
1.0
 40
1.0
 40
1.0
 10
4.817462295293807
 20
8.217189073562622
 30
0.0
 10
4.737243980169296
 20
8.066575288772583
 30
0.0
 10
4.612823814153671
 20
7.979808568954467
 30
0.0
  0
LINE
  5
EF
330
70
100
AcDbEntity
  8
bold_sat_s_et_p_box v3_Sketch1
100
AcDbLine
 10
3.543792337179183
 20
8.240108728408813
 30
0.0
 11
3.809003680944442
 21
8.240108728408813
 31
0.0
  0
SPLINE
  5
F0
330
70
100
AcDbEntity
  8
bold_sat_s_et_p_box v3_Sketch1
100
AcDbSpline
210
0.0
220
0.0
230
1.0
 70
     8
 71
     2
 72
     6
 73
     3
 74
     0
 42
0.000000001
 43
0.0000000001
 40
0.0
 40
0.0
 40
0.0
 40
1.0
 40
1.0
 40
1.0
 10
4.192087024450302
 20
8.277762174606323
 30
0.0
 10
4.288676351308822
 20
8.315415620803833
 30
0.0
 10
4.342700809240341
 20
8.395633935928344
 30
0.0
  0
LINE
  5
F1
330
70
100
AcDbEntity
  8
bold_sat_s_et_p_box v3_Sketch1
100
AcDbLine
 10
10.67912659049034
 20
11.22619342803955
 30
0.0
 11
11.13751682639122
 21
11.14924931526184
 31
0.0
  0
SPLINE
  5
F2
330
70
100
AcDbEntity
  8
bold_sat_s_et_p_box v3_Sketch1
100
AcDbSpline
210
0.0
220
0.0
230
1.0
 70
     8
 71
     2
 72
     6
 73
     3
 74
     0
 42
0.000000001
 43
0.0000000001
 40
0.0
 40
0.0
 40
0.0
 40
1.0
 40
1.0
 40
1.0
 10
4.39836248755455
 20
8.582264184951782
 30
0.0
 10
4.39836248755455
 20
8.71323275566101
 30
0.0
 10
4.321418613195419
 20
8.798362493515014
 30
0.0
  0
LINE
  5
F3
330
70
100
AcDbEntity
  8
bold_sat_s_et_p_box v3_Sketch1
100
AcDbLine
 10
3.777898639440536
 20
8.921145677566528
 30
0.0
 11
3.543792337179183
 21
8.921145677566528
 31
0.0
  0
SPLINE
  5
F4
330
70
100
AcDbEntity
  8
bold_sat_s_et_p_box v3_Sketch1
100
AcDbSpline
210
0.0
220
0.0
230
1.0
 70
     8
 71
     2
 72
     6
 73
     3
 74
     0
 42
0.000000001
 43
0.0000000001
 40
0.0
 40
0.0
 40
0.0
 40
1.0
 40
1.0
 40
1.0
 10
10.72087273001671
 20
8.238471269607543
 30
0.0
 10
10.6537512242794
 20
8.186084032058715
 30
0.0
 10
10.61446079611778
 20
8.046929597854614
 30
0.0
  0
LINE
  5
F5
330
70
100
AcDbEntity
  8
bold_sat_s_et_p_box v3_Sketch1
100
AcDbLine
 10
7.340245574712753
 20
9.32714819908142
 30
0.0
 11
7.800272792577743
 21
9.32714819908142
 31
0.0
  0
LINE
  5
F6
330
70
100
AcDbEntity
  8
bold_sat_s_et_p_box v3_Sketch1
100
AcDbLine
 10
7.800272792577743
 20
6.927148103713989
 30
0.0
 11
7.340245574712753
 21
6.927148103713989
 31
0.0
  0
SPLINE
  5
F7
330
70
100
AcDbEntity
  8
bold_sat_s_et_p_box v3_Sketch1
100
AcDbSpline
210
0.0
220
0.0
230
1.0
 70
     8
 71
     2
 72
     6
 73
     3
 74
     0
 42
0.000000001
 43
0.0000000001
 40
0.0
 40
0.0
 40
0.0
 40
1.0
 40
1.0
 40
1.0
 10
12.7165068089962
 20
8.448021173477172
 30
0.0
 10
12.94079002737999
 20
8.192632436752319
 30
0.0
 10
12.930967181921
 20
7.663846731185913
 30
0.0
  0
SPLINE
  5
F8
330
70
100
AcDbEntity
  8
bold_sat_s_et_p_box v3_Sketch1
100
AcDbSpline
210
0.0
220
0.0
230
1.0
 70
     8
 71
     2
 72
     6
 73
     3
 74
     0
 42
0.000000001
 43
0.0000000001
 40
0.0
 40
0.0
 40
0.0
 40
1.0
 40
1.0
 40
1.0
 10
12.15497955679893
 20
7.231650114059448
 30
0.0
 10
12.26302894949913
 20
7.231650114059448
 30
0.0
 10
12.33669838309288
 20
7.290586233139038
 30
0.0
  0
SPLINE
  5
F9
330
70
100
AcDbEntity
  8
bold_sat_s_et_p_box v3_Sketch1
100
AcDbSpline
210
0.0
220
0.0
230
1.0
 70
     8
 71
     2
 72
     6
 73
     3
 74
     0
 42
0.000000001
 43
0.0000000001
 40
0.0
 40
0.0
 40
0.0
 40
1.0
 40
1.0
 40
1.0
 10
12.33669838309288
 20
7.290586233139038
 30
0.0
 10
12.41036781668663
 20
7.349521875381469
 30
0.0
 10
12.44802078604698
 20
7.480490446090698
 30
0.0
  0
SPLINE
  5
FA
330
70
100
AcDbEntity
  8
bold_sat_s_et_p_box v3_Sketch1
100
AcDbSpline
210
0.0
220
0.0
230
1.0
 70
     8
 71
     2
 72
     6
 73
     3
 74
     0
 42
0.000000001
 43
0.0000000001
 40
0.0
 40
0.0
 40
0.0
 40
1.0
 40
1.0
 40
1.0
 10
12.47421440482139
 20
7.94542908668518
 30
0.0
 10
12.4693029820919
 20
8.145156145095825
 30
0.0
 10
12.37107643485069
 20
8.248294115066528
 30
0.0
  0
SPLINE
  5
FB
330
70
100
AcDbEntity
  8
bold_sat_s_et_p_box v3_Sketch1
100
AcDbSpline
210
0.0
220
0.0
230
1.0
 70
     8
 71
     2
 72
     6
 73
     3
 74
     0
 42
0.000000001
 43
0.0000000001
 40
0.0
 40
0.0
 40
0.0
 40
1.0
 40
1.0
 40
1.0
 10
12.37107643485069
 20
8.248294115066528
 30
0.0
 10
12.27284988760948
 20
8.353069067001342
 30
0.0
 10
12.13205894827843
 20
8.353069067001342
 30
0.0
  0
SPLINE
  5
FC
330
70
100
AcDbEntity
  8
bold_sat_s_et_p_box v3_Sketch1
100
AcDbSpline
210
0.0
220
0.0
230
1.0
 70
     8
 71
     2
 72
     6
 73
     3
 74
     0
 42
0.000000001
 43
0.0000000001
 40
0.0
 40
0.0
 40
0.0
 40
1.0
 40
1.0
 40
1.0
 10
6.081309646368026
 20
8.705046892166137
 30
0.0
 10
6.475852340459823
 20
8.705046892166137
 30
0.0
 10
6.727967113256454
 20
8.448021173477172
 30
0.0
  0
LINE
  5
FD
330
70
100
AcDbEntity
  8
bold_sat_s_et_p_box v3_Sketch1
100
AcDbLine
 10
7.800272792577743
 20
9.32714819908142
 30
0.0
 11
7.800272792577743
 21
8.901499986648559
 31
0.0
  0
SPLINE
  5
FE
330
70
100
AcDbEntity
  8
bold_sat_s_et_p_box v3_Sketch1
100
AcDbSpline
210
0.0
220
0.0
230
1.0
 70
     8
 71
     2
 72
     6
 73
     3
 74
     0
 42
0.000000001
 43
0.0000000001
 40
0.0
 40
0.0
 40
0.0
 40
1.0
 40
1.0
 40
1.0
 10
12.13205894827843
 20
8.353069067001342
 30
0.0
 10
11.98144516348839
 20
8.353069067001342
 30
0.0
 10
11.88321861624717
 20
8.243382692337036
 30
0.0
  0
LINE
  5
FF
330
70
100
AcDbEntity
  8
bold_sat_s_et_p_box v3_Sketch1
100
AcDbLine
 10
7.800272792577743
 20
8.665756464004516
 30
0.0
 11
7.800272792577743
 21
6.927148103713989
 31
0.0
  0
LINE
  5
100
330
70
100
AcDbEntity
  8
bold_sat_s_et_p_box v3_Sketch1
100
AcDbLine
 10
7.340245574712753
 20
8.665756464004516
 30
0.0
 11
7.800272792577743
 21
8.665756464004516
 31
0.0
  0
SPLINE
  5
101
330
70
100
AcDbEntity
  8
bold_sat_s_et_p_box v3_Sketch1
100
AcDbSpline
210
0.0
220
0.0
230
1.0
 70
     8
 71
     2
 72
     6
 73
     3
 74
     0
 42
0.000000001
 43
0.0000000001
 40
0.0
 40
0.0
 40
0.0
 40
1.0
 40
1.0
 40
1.0
 10
11.88976845145225
 20
7.344610452651977
 30
0.0
 10
11.99617943167686
 20
7.231650114059448
 30
0.0
 10
12.15497955679893
 20
7.231650114059448
 30
0.0
  0
LINE
  5
102
330
70
100
AcDbEntity
  8
bold_sat_s_et_p_box v3_Sketch1
100
AcDbLine
 10
8.749795287847518
 20
6.927148103713989
 30
0.0
 11
8.049113124608993
 21
8.665756464004516
 31
0.0
  0
LINE
  5
103
330
70
100
AcDbEntity
  8
bold_sat_s_et_p_box v3_Sketch1
100
AcDbLine
 10
8.859481185674667
 20
7.778444051742553
 30
0.0
 11
8.954433768987655
 21
7.482127428054809
 31
0.0
  0
LINE
  5
104
330
70
100
AcDbEntity
  8
bold_sat_s_et_p_box v3_Sketch1
100
AcDbLine
 10
7.800272792577743
 20
8.901499986648559
 30
0.0
 11
7.340245574712753
 21
8.901499986648559
 31
0.0
  0
SPLINE
  5
105
330
70
100
AcDbEntity
  8
bold_sat_s_et_p_box v3_Sketch1
100
AcDbSpline
210
0.0
220
0.0
230
1.0
 70
     8
 71
     2
 72
     6
 73
     3
 74
     0
 42
0.000000001
 43
0.0000000001
 40
0.0
 40
0.0
 40
0.0
 40
1.0
 40
1.0
 40
1.0
 10
5.657298415899276
 20
7.796452283859252
 30
0.0
 10
5.657298415899276
 20
7.537789106369018
 30
0.0
 10
5.78008159995079
 20
7.400272130966186
 30
0.0
  0
SPLINE
  5
106
330
70
100
AcDbEntity
  8
bold_sat_s_et_p_box v3_Sketch1
100
AcDbSpline
210
0.0
220
0.0
230
1.0
 70
     8
 71
     2
 72
     6
 73
     3
 74
     0
 42
0.000000001
 43
0.0000000001
 40
0.0
 40
0.0
 40
0.0
 40
1.0
 40
1.0
 40
1.0
 10
6.084583610296249
 20
6.887857675552368
 30
0.0
 10
5.845565646886825
 20
6.887857675552368
 30
0.0
 10
5.62783059477806
 20
6.995906591415405
 30
0.0
  0
SPLINE
  5
107
330
70
100
AcDbEntity
  8
bold_sat_s_et_p_box v3_Sketch1
100
AcDbSpline
210
0.0
220
0.0
230
1.0
 70
     8
 71
     2
 72
     6
 73
     3
 74
     0
 42
0.000000001
 43
0.0000000001
 40
0.0
 40
0.0
 40
0.0
 40
1.0
 40
1.0
 40
1.0
 10
5.62783059477806
 20
6.995906591415405
 30
0.0
 10
5.411732286214828
 20
7.103955507278442
 30
0.0
 10
5.298771947622299
 20
7.311868429183959
 30
0.0
  0
SPLINE
  5
108
330
70
100
AcDbEntity
  8
bold_sat_s_et_p_box v3_Sketch1
100
AcDbSpline
210
0.0
220
0.0
230
1.0
 70
     8
 71
     2
 72
     6
 73
     3
 74
     0
 42
0.000000001
 43
0.0000000001
 40
0.0
 40
0.0
 40
0.0
 40
1.0
 40
1.0
 40
1.0
 10
9.001909583806991
 20
7.631104707717895
 30
0.0
 10
9.024829238653182
 20
7.704774141311645
 30
0.0
 10
9.051022857427597
 20
7.778444051742553
 30
0.0
  0
SPLINE
  5
109
330
70
100
AcDbEntity
  8
bold_sat_s_et_p_box v3_Sketch1
100
AcDbSpline
210
0.0
220
0.0
230
1.0
 70
     8
 71
     2
 72
     6
 73
     3
 74
     0
 42
0.000000001
 43
0.0000000001
 40
0.0
 40
0.0
 40
0.0
 40
1.0
 40
1.0
 40
1.0
 10
6.384174197912216
 20
8.192632436752319
 30
0.0
 10
6.263028472661972
 20
8.330149412155151
 30
0.0
 10
6.082946628332138
 20
8.330149412155151
 30
0.0
  0
SPLINE
  5
10A
330
70
100
AcDbEntity
  8
bold_sat_s_et_p_box v3_Sketch1
100
AcDbSpline
210
0.0
220
0.0
230
1.0
 70
     8
 71
     2
 72
     6
 73
     3
 74
     0
 42
0.000000001
 43
0.0000000001
 40
0.0
 40
0.0
 40
0.0
 40
1.0
 40
1.0
 40
1.0
 10
6.980081886053085
 20
7.801363706588745
 30
0.0
 10
6.980081886053085
 20
7.40682053565979
 30
0.0
 10
6.724692672491073
 20
7.146520376205444
 30
0.0
  0
SPLINE
  5
10B
330
70
100
AcDbEntity
  8
bold_sat_s_et_p_box v3_Sketch1
100
AcDbSpline
210
0.0
220
0.0
230
1.0
 70
     8
 71
     2
 72
     6
 73
     3
 74
     0
 42
0.000000001
 43
0.0000000001
 40
0.0
 40
0.0
 40
0.0
 40
1.0
 40
1.0
 40
1.0
 10
6.082946628332138
 20
7.262755155563354
 30
0.0
 10
6.263028472661972
 20
7.262755155563354
 30
0.0
 10
6.384174197912216
 20
7.400272130966186
 30
0.0
  0
LINE
  5
10C
330
70
100
AcDbEntity
  8
bold_sat_s_et_p_box v3_Sketch1
100
AcDbLine
 10
8.532059997320175
 20
8.665756464004516
 30
0.0
 11
8.859481185674667
 21
7.778444051742553
 31
0.0
  0
SPLINE
  5
10D
330
70
100
AcDbEntity
  8
bold_sat_s_et_p_box v3_Sketch1
100
AcDbSpline
210
0.0
220
0.0
230
1.0
 70
     8
 71
     2
 72
     6
 73
     3
 74
     0
 42
0.000000001
 43
0.0000000001
 40
0.0
 40
0.0
 40
0.0
 40
1.0
 40
1.0
 40
1.0
 10
5.298771947622299
 20
7.311868429183959
 30
0.0
 10
5.185811609029769
 20
7.521418333053588
 30
0.0
 10
5.185811609029769
 20
7.821008920669555
 30
0.0
  0
LINE
  5
10E
330
70
100
AcDbEntity
  8
bold_sat_s_et_p_box v3_Sketch1
100
AcDbLine
 10
9.051022857427597
 20
7.778444051742553
 30
0.0
 11
9.381718963384628
 21
8.665756464004516
 31
0.0
  0
LINE
  5
10F
330
70
100
AcDbEntity
  8
bold_sat_s_et_p_box v3_Sketch1
100
AcDbLine
 10
9.381718963384628
 20
8.665756464004516
 30
0.0
 11
9.854842990636825
 21
8.665756464004516
 31
0.0
  0
SPLINE
  5
110
330
70
100
AcDbEntity
  8
bold_sat_s_et_p_box v3_Sketch1
100
AcDbSpline
210
0.0
220
0.0
230
1.0
 70
     8
 71
     2
 72
     6
 73
     3
 74
     0
 42
0.000000001
 43
0.0000000001
 40
0.0
 40
0.0
 40
0.0
 40
1.0
 40
1.0
 40
1.0
 10
10.54406532645225
 20
8.418553590774536
 30
0.0
 10
10.6537512242794
 20
8.593724012374877
 30
0.0
 10
10.74051842093467
 20
8.649385690689086
 30
0.0
  0
LINE
  5
111
330
70
100
AcDbEntity
  8
bold_sat_s_et_p_box v3_Sketch1
100
AcDbLine
 10
10.11678013205528
 20
8.665756464004516
 30
0.0
 11
10.54406532645225
 21
8.665756464004516
 31
0.0
  0
SPLINE
  5
112
330
70
100
AcDbEntity
  8
bold_sat_s_et_p_box v3_Sketch1
100
AcDbSpline
210
0.0
220
0.0
230
1.0
 70
     8
 71
     2
 72
     6
 73
     3
 74
     0
 42
0.000000001
 43
0.0000000001
 40
0.0
 40
0.0
 40
0.0
 40
1.0
 40
1.0
 40
1.0
 10
6.506957381963729
 20
7.799726724624633
 30
0.0
 10
6.506957381963729
 20
8.055115461349487
 30
0.0
 10
6.384174197912216
 20
8.192632436752319
 30
0.0
  0
LINE
  5
113
330
70
100
AcDbEntity
  8
bold_sat_s_et_p_box v3_Sketch1
100
AcDbLine
 10
10.54406532645225
 20
8.665756464004516
 30
0.0
 11
10.54406532645225
 21
8.418553590774536
 31
0.0
  0
SPLINE
  5
114
330
70
100
AcDbEntity
  8
bold_sat_s_et_p_box v3_Sketch1
100
AcDbSpline
210
0.0
220
0.0
230
1.0
 70
     8
 71
     2
 72
     6
 73
     3
 74
     0
 42
0.000000001
 43
0.0000000001
 40
0.0
 40
0.0
 40
0.0
 40
1.0
 40
1.0
 40
1.0
 10
10.940244525671
 20
8.705046892166137
 30
0.0
 10
11.09740814566612
 20
8.705046892166137
 30
0.0
 10
11.24311050772667
 20
8.61828064918518
 30
0.0
  0
LINE
  5
115
330
70
100
AcDbEntity
  8
bold_sat_s_et_p_box v3_Sketch1
100
AcDbLine
 10
11.24311050772667
 20
8.61828064918518
 30
0.0
 11
11.10068115592003
 21
8.217189073562622
 31
0.0
  0
SPLINE
  5
116
330
70
100
AcDbEntity
  8
bold_sat_s_et_p_box v3_Sketch1
100
AcDbSpline
210
0.0
220
0.0
230
1.0
 70
     8
 71
     2
 72
     6
 73
     3
 74
     0
 42
0.000000001
 43
0.0000000001
 40
0.0
 40
0.0
 40
0.0
 40
1.0
 40
1.0
 40
1.0
 10
11.10068115592003
 20
8.217189073562622
 30
0.0
 10
10.98444733023643
 20
8.292495965957641
 30
0.0
 10
10.88458427786827
 20
8.292495965957641
 30
0.0
  0
LINE
  5
117
330
70
100
AcDbEntity
  8
bold_sat_s_et_p_box v3_Sketch1
100
AcDbLine
 10
9.854842990636825
 20
8.665756464004516
 30
0.0
 11
9.163983672857284
 21
6.927148103713989
 31
0.0
  0
SPLINE
  5
118
330
70
100
AcDbEntity
  8
bold_sat_s_et_p_box v3_Sketch1
100
AcDbSpline
210
0.0
220
0.0
230
1.0
 70
     8
 71
     2
 72
     6
 73
     3
 74
     0
 42
0.000000001
 43
0.0000000001
 40
0.0
 40
0.0
 40
0.0
 40
1.0
 40
1.0
 40
1.0
 10
10.88458427786827
 20
8.292495965957641
 30
0.0
 10
10.78799423575401
 20
8.292495965957641
 30
0.0
 10
10.72087273001671
 20
8.238471269607543
 30
0.0
  0
LINE
  5
119
330
70
100
AcDbEntity
  8
bold_sat_s_et_p_box v3_Sketch1
100
AcDbLine
 10
9.163983672857284
 20
6.927148103713989
 30
0.0
 11
8.749795287847518
 21
6.927148103713989
 31
0.0
  0
SPLINE
  5
11A
330
70
100
AcDbEntity
  8
bold_sat_s_et_p_box v3_Sketch1
100
AcDbSpline
210
0.0
220
0.0
230
1.0
 70
     8
 71
     2
 72
     6
 73
     3
 74
     0
 42
0.000000001
 43
0.0000000001
 40
0.0
 40
0.0
 40
0.0
 40
1.0
 40
1.0
 40
1.0
 10
10.74051842093467
 20
8.649385690689086
 30
0.0
 10
10.8289221227169
 20
8.705046892166137
 30
0.0
 10
10.940244525671
 20
8.705046892166137
 30
0.0
  0
LINE
  5
11B
330
70
100
AcDbEntity
  8
bold_sat_s_et_p_box v3_Sketch1
100
AcDbLine
 10
10.57680687308311
 20
7.464119672775268
 30
0.0
 11
10.57680687308311
 21
6.927148103713989
 31
0.0
  0
LINE
  5
11C
330
70
100
AcDbEntity
  8
bold_sat_s_et_p_box v3_Sketch1
100
AcDbLine
 10
12.44802078604698
 20
7.480490446090698
 30
0.0
 11
12.90641197562218
 21
7.403546571731567
 31
0.0
  0
LINE
  5
11D
330
70
100
AcDbEntity
  8
bold_sat_s_et_p_box v3_Sketch1
100
AcDbLine
 10
10.11678013205528
 20
6.927148103713989
 30
0.0
 11
10.11678013205528
 21
8.665756464004516
 31
0.0
  0
SPLINE
  5
11E
330
70
100
AcDbEntity
  8
bold_sat_s_et_p_box v3_Sketch1
100
AcDbSpline
210
0.0
220
0.0
230
1.0
 70
     8
 71
     2
 72
     6
 73
     3
 74
     0
 42
0.000000001
 43
0.0000000001
 40
0.0
 40
0.0
 40
0.0
 40
1.0
 40
1.0
 40
1.0
 10
6.384174197912216
 20
7.400272130966186
 30
0.0
 10
6.506957381963729
 20
7.537789106369018
 30
0.0
 10
6.506957381963729
 20
7.799726724624633
 30
0.0
  0
SPLINE
  5
11F
330
70
100
AcDbEntity
  8
bold_sat_s_et_p_box v3_Sketch1
100
AcDbSpline
210
0.0
220
0.0
230
1.0
 70
     8
 71
     2
 72
     6
 73
     3
 74
     0
 42
0.000000001
 43
0.0000000001
 40
0.0
 40
0.0
 40
0.0
 40
1.0
 40
1.0
 40
1.0
 10
5.618007987737655
 20
8.592087030410766
 30
0.0
 10
5.825920909643173
 20
8.705046892166137
 30
0.0
 10
6.081309646368026
 20
8.705046892166137
 30
0.0
  0
SPLINE
  5
120
330
70
100
AcDbEntity
  8
bold_sat_s_et_p_box v3_Sketch1
100
AcDbSpline
210
0.0
220
0.0
230
1.0
 70
     8
 71
     2
 72
     6
 73
     3
 74
     0
 42
0.000000001
 43
0.0000000001
 40
0.0
 40
0.0
 40
0.0
 40
1.0
 40
1.0
 40
1.0
 10
6.727967113256454
 20
8.448021173477172
 30
0.0
 10
6.980081886053085
 20
8.192632436752319
 30
0.0
 10
6.980081886053085
 20
7.801363706588745
 30
0.0
  0
LINE
  5
121
330
70
100
AcDbEntity
  8
bold_sat_s_et_p_box v3_Sketch1
100
AcDbLine
 10
7.340245574712753
 20
8.901499986648559
 30
0.0
 11
7.340245574712753
 21
9.32714819908142
 31
0.0
  0
SPLINE
  5
122
330
70
100
AcDbEntity
  8
bold_sat_s_et_p_box v3_Sketch1
100
AcDbSpline
210
0.0
220
0.0
230
1.0
 70
     8
 71
     2
 72
     6
 73
     3
 74
     0
 42
0.000000001
 43
0.0000000001
 40
0.0
 40
0.0
 40
0.0
 40
1.0
 40
1.0
 40
1.0
 10
10.61446079611778
 20
8.046929597854614
 30
0.0
 10
10.57680687308311
 20
7.90777564048767
 30
0.0
 10
10.57680687308311
 20
7.464119672775268
 30
0.0
  0
SPLINE
  5
123
330
70
100
AcDbEntity
  8
bold_sat_s_et_p_box v3_Sketch1
100
AcDbSpline
210
0.0
220
0.0
230
1.0
 70
     8
 71
     2
 72
     6
 73
     3
 74
     0
 42
0.000000001
 43
0.0000000001
 40
0.0
 40
0.0
 40
0.0
 40
1.0
 40
1.0
 40
1.0
 10
12.62646660208702
 20
7.018826246261596
 30
0.0
 10
12.43656143546104
 20
6.887857675552368
 30
0.0
 10
12.15006813406944
 20
6.887857675552368
 30
0.0
  0
SPLINE
  5
124
330
70
100
AcDbEntity
  8
bold_sat_s_et_p_box v3_Sketch1
100
AcDbSpline
210
0.0
220
0.0
230
1.0
 70
     8
 71
     2
 72
     6
 73
     3
 74
     0
 42
0.000000001
 43
0.0000000001
 40
0.0
 40
0.0
 40
0.0
 40
1.0
 40
1.0
 40
1.0
 10
6.082946628332138
 20
8.330149412155151
 30
0.0
 10
5.902864784002304
 20
8.330149412155151
 30
0.0
 10
5.78008159995079
 20
8.192632436752319
 30
0.0
  0
SPLINE
  5
125
330
70
100
AcDbEntity
  8
bold_sat_s_et_p_box v3_Sketch1
100
AcDbSpline
210
0.0
220
0.0
230
1.0
 70
     8
 71
     2
 72
     6
 73
     3
 74
     0
 42
0.000000001
 43
0.0000000001
 40
0.0
 40
0.0
 40
0.0
 40
1.0
 40
1.0
 40
1.0
 10
5.78008159995079
 20
7.400272130966186
 30
0.0
 10
5.902864784002304
 20
7.262755155563354
 30
0.0
 10
6.082946628332138
 20
7.262755155563354
 30
0.0
  0
LINE
  5
126
330
70
100
AcDbEntity
  8
bold_sat_s_et_p_box v3_Sketch1
100
AcDbLine
 10
7.340245574712753
 20
6.927148103713989
 30
0.0
 11
7.340245574712753
 21
8.665756464004516
 31
0.0
  0
SPLINE
  5
127
330
70
100
AcDbEntity
  8
bold_sat_s_et_p_box v3_Sketch1
100
AcDbSpline
210
0.0
220
0.0
230
1.0
 70
     8
 71
     2
 72
     6
 73
     3
 74
     0
 42
0.000000001
 43
0.0000000001
 40
0.0
 40
0.0
 40
0.0
 40
1.0
 40
1.0
 40
1.0
 10
6.724692672491073
 20
7.146520376205444
 30
0.0
 10
6.470941394567489
 20
6.887857675552368
 30
0.0
 10
6.084583610296249
 20
6.887857675552368
 30
0.0
  0
LINE
  5
128
330
70
100
AcDbEntity
  8
bold_sat_s_et_p_box v3_Sketch1
100
AcDbLine
 10
8.049113124608993
 20
8.665756464004516
 30
0.0
 11
8.532059997320175
 21
8.665756464004516
 31
0.0
  0
SPLINE
  5
129
330
70
100
AcDbEntity
  8
bold_sat_s_et_p_box v3_Sketch1
100
AcDbSpline
210
0.0
220
0.0
230
1.0
 70
     8
 71
     2
 72
     6
 73
     3
 74
     0
 42
0.000000001
 43
0.0000000001
 40
0.0
 40
0.0
 40
0.0
 40
1.0
 40
1.0
 40
1.0
 10
5.78008159995079
 20
8.192632436752319
 30
0.0
 10
5.657298415899276
 20
8.055115461349487
 30
0.0
 10
5.657298415899276
 20
7.796452283859252
 30
0.0
  0
SPLINE
  5
12A
330
70
100
AcDbEntity
  8
bold_sat_s_et_p_box v3_Sketch1
100
AcDbSpline
210
0.0
220
0.0
230
1.0
 70
     8
 71
     2
 72
     6
 73
     3
 74
     0
 42
0.000000001
 43
0.0000000001
 40
0.0
 40
0.0
 40
0.0
 40
1.0
 40
1.0
 40
1.0
 10
12.90641197562218
 20
7.403546571731567
 30
0.0
 10
12.81800827383995
 20
7.151431798934936
 30
0.0
 10
12.62646660208702
 20
7.018826246261596
 30
0.0
  0
SPLINE
  5
12B
330
70
100
AcDbEntity
  8
bold_sat_s_et_p_box v3_Sketch1
100
AcDbSpline
210
0.0
220
0.0
230
1.0
 70
     8
 71
     2
 72
     6
 73
     3
 74
     0
 42
0.000000001
 43
0.0000000001
 40
0.0
 40
0.0
 40
0.0
 40
1.0
 40
1.0
 40
1.0
 10
12.15006813406944
 20
6.887857675552368
 30
0.0
 10
11.69658836722374
 20
6.887857675552368
 30
0.0
 10
11.47885307669639
 20
7.184173822402954
 30
0.0
  0
SPLINE
  5
12C
330
70
100
AcDbEntity
  8
bold_sat_s_et_p_box v3_Sketch1
100
AcDbSpline
210
0.0
220
0.0
230
1.0
 70
     8
 71
     2
 72
     6
 73
     3
 74
     0
 42
0.000000001
 43
0.0000000001
 40
0.0
 40
0.0
 40
0.0
 40
1.0
 40
1.0
 40
1.0
 10
11.47885307669639
 20
7.184173822402954
 30
0.0
 10
11.30695709586143
 20
7.421554803848266
 30
0.0
 10
11.30695709586143
 20
7.783355474472045
 30
0.0
  0
SPLINE
  5
12D
330
70
100
AcDbEntity
  8
bold_sat_s_et_p_box v3_Sketch1
100
AcDbSpline
210
0.0
220
0.0
230
1.0
 70
     8
 71
     2
 72
     6
 73
     3
 74
     0
 42
0.000000001
 43
0.0000000001
 40
0.0
 40
0.0
 40
0.0
 40
1.0
 40
1.0
 40
1.0
 10
11.30695709586143
 20
7.783355474472045
 30
0.0
 10
11.30695709586143
 20
8.21555209159851
 30
0.0
 10
11.53287872672081
 20
8.459481000900268
 30
0.0
  0
LINE
  5
12E
330
70
100
AcDbEntity
  8
bold_sat_s_et_p_box v3_Sketch1
100
AcDbLine
 10
10.57680687308311
 20
6.927148103713989
 30
0.0
 11
10.11678013205528
 21
6.927148103713989
 31
0.0
  0
SPLINE
  5
12F
330
70
100
AcDbEntity
  8
bold_sat_s_et_p_box v3_Sketch1
100
AcDbSpline
210
0.0
220
0.0
230
1.0
 70
     8
 71
     2
 72
     6
 73
     3
 74
     0
 42
0.000000001
 43
0.0000000001
 40
0.0
 40
0.0
 40
0.0
 40
1.0
 40
1.0
 40
1.0
 10
11.53287872672081
 20
8.459481000900268
 30
0.0
 10
11.75879845023155
 20
8.705046892166137
 30
0.0
 10
12.10422882437706
 20
8.705046892166137
 30
0.0
  0
SPLINE
  5
130
330
70
100
AcDbEntity
  8
bold_sat_s_et_p_box v3_Sketch1
100
AcDbSpline
210
0.0
220
0.0
230
1.0
 70
     8
 71
     2
 72
     6
 73
     3
 74
     0
 42
0.000000001
 43
0.0000000001
 40
0.0
 40
0.0
 40
0.0
 40
1.0
 40
1.0
 40
1.0
 10
12.10422882437706
 20
8.705046892166137
 30
0.0
 10
12.49222359061241
 20
8.705046892166137
 30
0.0
 10
12.7165068089962
 20
8.448021173477172
 30
0.0
  0
LINE
  5
131
330
70
100
AcDbEntity
  8
bold_sat_s_et_p_box v3_Sketch1
100
AcDbLine
 10
12.930967181921
 20
7.663846731185913
 30
0.0
 11
11.77844414114952
 21
7.663846731185913
 31
0.0
  0
SPLINE
  5
132
330
70
100
AcDbEntity
  8
bold_sat_s_et_p_box v3_Sketch1
100
AcDbSpline
210
0.0
220
0.0
230
1.0
 70
     8
 71
     2
 72
     6
 73
     3
 74
     0
 42
0.000000001
 43
0.0000000001
 40
0.0
 40
0.0
 40
0.0
 40
1.0
 40
1.0
 40
1.0
 10
8.954433768987655
 20
7.482127428054809
 30
0.0
 10
8.992087215185165
 20
7.595088243484497
 30
0.0
 10
9.001909583806991
 20
7.631104707717895
 30
0.0
  0
SPLINE
  5
133
330
70
100
AcDbEntity
  8
bold_sat_s_et_p_box v3_Sketch1
100
AcDbSpline
210
0.0
220
0.0
230
1.0
 70
     8
 71
     2
 72
     6
 73
     3
 74
     0
 42
0.000000001
 43
0.0000000001
 40
0.0
 40
0.0
 40
0.0
 40
1.0
 40
1.0
 40
1.0
 10
11.77844414114952
 20
7.663846731185913
 30
0.0
 10
11.78335556387901
 20
7.459208250045776
 30
0.0
 10
11.88976845145225
 20
7.344610452651977
 30
0.0
  0
LINE
  5
134
330
70
100
AcDbEntity
  8
bold_sat_s_et_p_box v3_Sketch1
100
AcDbLine
 10
11.78663048148155
 20
7.94542908668518
 30
0.0
 11
12.47421440482139
 21
7.94542908668518
 31
0.0
  0
SPLINE
  5
135
330
70
100
AcDbEntity
  8
bold_sat_s_et_p_box v3_Sketch1
100
AcDbSpline
210
0.0
220
0.0
230
1.0
 70
     8
 71
     2
 72
     6
 73
     3
 74
     0
 42
0.000000001
 43
0.0000000001
 40
0.0
 40
0.0
 40
0.0
 40
1.0
 40
1.0
 40
1.0
 10
11.88321861624717
 20
8.243382692337036
 30
0.0
 10
11.78499206900596
 20
8.133696794509887
 30
0.0
 10
11.78663048148155
 20
7.94542908668518
 30
0.0
  0
ENDSEC
  0
SECTION
  2
OBJECTS
  0
DICTIONARY
  5
C
330
0
100
AcDbDictionary
281
     1
  3
ACAD_COLOR
350
63
  3
ACAD_DETAILVIEWSTYLE
350
6A
  3
ACAD_GROUP
350
D
  3
ACAD_LAYOUT
350
62
  3
ACAD_MATERIAL
350
10
  3
ACAD_MLEADERSTYLE
350
66
  3
ACAD_MLINESTYLE
350
5F
  3
ACAD_PLOTSETTINGS
350
61
  3
ACAD_PLOTSTYLENAME
350
E
  3
ACAD_SCALELIST
350
42
  3
ACAD_SECTIONVIEWSTYLE
350
68
  3
ACAD_TABLESTYLE
350
64
  3
ACAD_VISUALSTYLE
350
29
  3
ACDB_RECOMPOSE_DATA
350
13E
  3
AcDbVariableDictionary
350
136
  0
DICTIONARY
  5
63
102
{ACAD_REACTORS
330
C
102
}
330
C
100
AcDbDictionary
281
     1
  0
DICTIONARY
  5
6A
102
{ACAD_REACTORS
330
C
102
}
330
C
100
AcDbDictionary
281
     1
  3
Imperial24
350
6B
  0
DICTIONARY
  5
D
102
{ACAD_REACTORS
330
C
102
}
330
C
100
AcDbDictionary
281
     1
  0
DICTIONARY
  5
62
102
{ACAD_REACTORS
330
C
102
}
330
C
100
AcDbDictionary
281
     1
  3
Layout1
350
6F
  3
Layout2
350
77
  3
Model
350
73
  0
DICTIONARY
  5
10
102
{ACAD_REACTORS
330
C
102
}
330
C
100
AcDbDictionary
281
     1
  3
ByBlock
350
19
  3
ByLayer
350
11
  3
Global
350
21
  0
DICTIONARY
  5
66
102
{ACAD_REACTORS
330
C
102
}
330
C
100
AcDbDictionary
281
     1
  3
Standard
350
67
  0
DICTIONARY
  5
5F
102
{ACAD_REACTORS
330
C
102
}
330
C
100
AcDbDictionary
281
     1
  3
Standard
350
60
  0
DICTIONARY
  5
61
102
{ACAD_REACTORS
330
C
102
}
330
C
100
AcDbDictionary
281
     1
  0
ACDBDICTIONARYWDFLT
  5
E
102
{ACAD_REACTORS
330
C
102
}
330
C
100
AcDbDictionary
281
     1
  3
Normal
350
F
100
AcDbDictionaryWithDefault
340
F
  0
DICTIONARY
  5
42
102
{ACAD_REACTORS
330
C
102
}
330
C
100
AcDbDictionary
281
     1
  3
A0
350
43
  3
A1
350
44
  3
A2
350
45
  3
A3
350
46
  3
A4
350
47
  3
A5
350
48
  3
A6
350
49
  3
A7
350
4A
  3
A8
350
4B
  3
A9
350
4C
  3
B0
350
4D
  3
B1
350
4E
  3
B2
350
4F
  3
B3
350
50
  3
B4
350
51
  3
B5
350
52
  3
B6
350
53
  0
DICTIONARY
  5
68
102
{ACAD_REACTORS
330
C
102
}
330
C
100
AcDbDictionary
281
     1
  3
Imperial24
350
69
  0
DICTIONARY
  5
64
102
{ACAD_REACTORS
330
C
102
}
330
C
100
AcDbDictionary
281
     1
  3
Standard
350
65
  0
DICTIONARY
  5
29
102
{ACAD_REACTORS
330
C
102
}
330
C
100
AcDbDictionary
281
     1
  3
2dWireframe
350
2F
  3
Basic
350
2E
  3
Brighten
350
35
  3
ColorChange
350
39
  3
Conceptual
350
32
  3
Dim
350
34
  3
EdgeColorOff
350
41
  3
Facepattern
350
38
  3
Flat
350
2A
  3
FlatWithEdges
350
2B
  3
Gouraud
350
2C
  3
GouraudWithEdges
350
2D
  3
Hidden
350
31
  3
JitterOff
350
3F
  3
Linepattern
350
37
  3
OverhangOff
350
40
  3
Realistic
350
33
  3
Shaded
350
3E
  3
Shaded with edges
350
3D
  3
Shades of Gray
350
3A
  3
Sketchy
350
3B
  3
Thicken
350
36
  3
Wireframe
350
30
  3
X-Ray
350
3C
  0
XRECORD
  5
13E
102
{ACAD_REACTORS
330
C
102
}
330
C
100
AcDbXrecord
280
     1
 90
        1
330
65
  0
DICTIONARY
  5
136
102
{ACAD_REACTORS
330
C
102
}
330
C
100
AcDbDictionary
281
     1
  3
CANNOSCALE
350
13B
  3
CMLEADERSTYLE
350
138
  3
CTABLESTYLE
350
137
  3
CVIEWDETAILSTYLE
350
139
  3
CVIEWSECTIONSTYLE
350
13A
  0
ACDBDETAILVIEWSTYLE
  5
6B
102
{ACAD_XDICTIONARY
360
141
102
}
102
{ACAD_REACTORS
330
6A
102
}
330
6A
100
AcDbModelDocViewStyle
 70
     0
  3
Imperial24
290
     0
100
AcDbDetailViewStyle
 70
     0
 71
     0
 90
        3
 71
     1
340
55
 62
   256
 40
0.24
340
0
 62
   256
 40
0.24
300

 40
0.36
280
     3
 71
     2
340
5D
 90
       25
 62
   256
 71
     3
340
55
 62
   256
 40
0.24
 90
        1
 40
0.75
 90
        1
300
%<\AcVar ViewType \f "%tc1">% %<\AcVar ViewDetailId>%\PSCALE %<\AcVar ViewScale \f "%sn">%
 71
     4
340
5D
 90
       25
 62
   256
340
5D
 90
       25
 62
   256
280
     0
  0
LAYOUT
  5
6F
102
{ACAD_REACTORS
330
62
102
}
330
62
100
AcDbPlotSettings
  1

  2

  4

  6

 40
0.0
 41
0.0
 42
0.0
 43
0.0
 44
0.0
 45
0.0
 46
0.0
 47
0.0
 48
0.0
 49
0.0
140
0.0
141
0.0
142
1.0
143
1.0
 70
   688
 72
     0
 73
     0
 74
     5
  7

 75
    16
147
1.0
 76
     0
 77
     2
 78
   300
148
0.0
149
0.0
100
AcDbLayout
  1
Layout1
 70
     1
 71
     1
 10
0.0
 20
0.0
 11
12.0
 21
9.0
 12
0.0
 22
0.0
 32
0.0
 14
0.0
 24
0.0
 34
0.0
 15
0.0
 25
0.0
 35
0.0
146
0.0
 13
0.0
 23
0.0
 33
0.0
 16
1.0
 26
0.0
 36
0.0
 17
0.0
 27
1.0
 37
0.0
 76
     0
330
6C
  0
LAYOUT
  5
77
102
{ACAD_REACTORS
330
62
102
}
330
62
100
AcDbPlotSettings
  1

  2

  4

  6

 40
0.0
 41
0.0
 42
0.0
 43
0.0
 44
0.0
 45
0.0
 46
0.0
 47
0.0
 48
0.0
 49
0.0
140
0.0
141
0.0
142
1.0
143
1.0
 70
   688
 72
     0
 73
     0
 74
     5
  7

 75
    16
147
1.0
 76
     0
 77
     2
 78
   300
148
0.0
149
0.0
100
AcDbLayout
  1
Layout2
 70
     1
 71
     2
 10
0.0
 20
0.0
 11
12.0
 21
9.0
 12
0.0
 22
0.0
 32
0.0
 14
0.0
 24
0.0
 34
0.0
 15
0.0
 25
0.0
 35
0.0
146
0.0
 13
0.0
 23
0.0
 33
0.0
 16
1.0
 26
0.0
 36
0.0
 17
0.0
 27
1.0
 37
0.0
 76
     0
330
74
  0
LAYOUT
  5
73
102
{ACAD_REACTORS
330
62
102
}
330
62
100
AcDbPlotSettings
  1

  2

  4

  6

 40
0.0
 41
0.0
 42
0.0
 43
0.0
 44
0.0
 45
0.0
 46
0.0
 47
0.0
 48
0.0
 49
0.0
140
0.0
141
0.0
142
1.0
143
1.0
 70
  1712
 72
     0
 73
     0
 74
     0
  7

 75
     0
147
1.0
 76
     0
 77
     2
 78
   300
148
0.0
149
0.0
100
AcDbLayout
  1
Model
 70
     1
 71
     0
 10
0.0
 20
0.0
 11
12.0
 21
9.0
 12
0.0
 22
0.0
 32
0.0
 14
0.0
 24
0.0
 34
0.0
 15
0.0
 25
0.0
 35
0.0
146
0.0
 13
0.0
 23
0.0
 33
0.0
 16
1.0
 26
0.0
 36
0.0
 17
0.0
 27
1.0
 37
0.0
 76
     0
330
70
  0
MATERIAL
  5
19
102
{ACAD_XDICTIONARY
360
1A
102
}
102
{ACAD_REACTORS
330
10
102
}
330
10
100
AcDbMaterial
  1
ByBlock
 72
     0
 43
0.0208333333333333
 43
0.0
 43
0.0
 43
0.0
 43
0.0
 43
0.0208333333333333
 43
0.0
 43
0.0
 43
0.0
 43
0.0
 43
1.0
 43
0.0
 43
0.0
 43
0.0
 43
0.0
 43
1.0
 77
     0
 47
0.0208333333333333
 47
0.0
 47
0.0
 47
0.0
 47
0.0
 47
0.0208333333333333
 47
0.0
 47
0.0
 47
0.0
 47
0.0
 47
1.0
 47
0.0
 47
0.0
 47
0.0
 47
0.0
 47
1.0
171
     0
 49
0.0208333333333333
 49
0.0
 49
0.0
 49
0.0
 49
0.0
 49
0.0208333333333333
 49
0.0
 49
0.0
 49
0.0
 49
0.0
 49
1.0
 49
0.0
 49
0.0
 49
0.0
 49
0.0
 49
1.0
175
     0
142
0.0208333333333333
142
0.0
142
0.0
142
0.0
142
0.0
142
0.0208333333333333
142
0.0
142
0.0
142
0.0
142
0.0
142
1.0
142
0.0
142
0.0
142
0.0
142
0.0
142
1.0
179
     0
144
0.0208333333333333
144
0.0
144
0.0
144
0.0
144
0.0
144
0.0208333333333333
144
0.0
144
0.0
144
0.0
144
0.0
144
1.0
144
0.0
144
0.0
144
0.0
144
0.0
144
1.0
147
0.0208333333333333
147
0.0
147
0.0
147
0.0
147
0.0
147
0.0208333333333333
147
0.0
147
0.0
147
0.0
147
0.0
147
1.0
147
0.0
147
0.0
147
0.0
147
0.0
147
1.0
  0
MATERIAL
  5
11
102
{ACAD_XDICTIONARY
360
12
102
}
102
{ACAD_REACTORS
330
10
102
}
330
10
100
AcDbMaterial
  1
ByLayer
 72
     0
 43
0.0208333333333333
 43
0.0
 43
0.0
 43
0.0
 43
0.0
 43
0.0208333333333333
 43
0.0
 43
0.0
 43
0.0
 43
0.0
 43
1.0
 43
0.0
 43
0.0
 43
0.0
 43
0.0
 43
1.0
 77
     0
 47
0.0208333333333333
 47
0.0
 47
0.0
 47
0.0
 47
0.0
 47
0.0208333333333333
 47
0.0
 47
0.0
 47
0.0
 47
0.0
 47
1.0
 47
0.0
 47
0.0
 47
0.0
 47
0.0
 47
1.0
171
     0
 49
0.0208333333333333
 49
0.0
 49
0.0
 49
0.0
 49
0.0
 49
0.0208333333333333
 49
0.0
 49
0.0
 49
0.0
 49
0.0
 49
1.0
 49
0.0
 49
0.0
 49
0.0
 49
0.0
 49
1.0
175
     0
142
0.0208333333333333
142
0.0
142
0.0
142
0.0
142
0.0
142
0.0208333333333333
142
0.0
142
0.0
142
0.0
142
0.0
142
1.0
142
0.0
142
0.0
142
0.0
142
0.0
142
1.0
179
     0
144
0.0208333333333333
144
0.0
144
0.0
144
0.0
144
0.0
144
0.0208333333333333
144
0.0
144
0.0
144
0.0
144
0.0
144
1.0
144
0.0
144
0.0
144
0.0
144
0.0
144
1.0
147
0.0208333333333333
147
0.0
147
0.0
147
0.0
147
0.0
147
0.0208333333333333
147
0.0
147
0.0
147
0.0
147
0.0
147
1.0
147
0.0
147
0.0
147
0.0
147
0.0
147
1.0
  0
MATERIAL
  5
21
102
{ACAD_XDICTIONARY
360
22
102
}
102
{ACAD_REACTORS
330
10
102
}
330
10
100
AcDbMaterial
  1
Global
 72
     0
 43
0.0208333333333333
 43
0.0
 43
0.0
 43
0.0
 43
0.0
 43
0.0208333333333333
 43
0.0
 43
0.0
 43
0.0
 43
0.0
 43
1.0
 43
0.0
 43
0.0
 43
0.0
 43
0.0
 43
1.0
 77
     0
 47
0.0208333333333333
 47
0.0
 47
0.0
 47
0.0
 47
0.0
 47
0.0208333333333333
 47
0.0
 47
0.0
 47
0.0
 47
0.0
 47
1.0
 47
0.0
 47
0.0
 47
0.0
 47
0.0
 47
1.0
171
     0
 49
0.0208333333333333
 49
0.0
 49
0.0
 49
0.0
 49
0.0
 49
0.0208333333333333
 49
0.0
 49
0.0
 49
0.0
 49
0.0
 49
1.0
 49
0.0
 49
0.0
 49
0.0
 49
0.0
 49
1.0
175
     0
142
0.0208333333333333
142
0.0
142
0.0
142
0.0
142
0.0
142
0.0208333333333333
142
0.0
142
0.0
142
0.0
142
0.0
142
1.0
142
0.0
142
0.0
142
0.0
142
0.0
142
1.0
179
     0
144
0.0208333333333333
144
0.0
144
0.0
144
0.0
144
0.0
144
0.0208333333333333
144
0.0
144
0.0
144
0.0
144
0.0
144
1.0
144
0.0
144
0.0
144
0.0
144
0.0
144
1.0
147
0.0208333333333333
147
0.0
147
0.0
147
0.0
147
0.0
147
0.0208333333333333
147
0.0
147
0.0
147
0.0
147
0.0
147
1.0
147
0.0
147
0.0
147
0.0
147
0.0
147
1.0
  0
MLEADERSTYLE
  5
67
102
{ACAD_REACTORS
330
66
102
}
330
66
100
AcDbMLeaderStyle
179
     2
170
     2
171
     1
172
     0
 90
        2
 40
0.0
 41
0.0
173
     1
 91
-1056964608
340
5B
 92
       -2
290
     1
 42
0.09
291
     1
 43
0.36
  3
Standard
 44
0.18
300

342
55
174
     1
178
     6
175
     1
176
     0
 93
-1056964608
 45
0.18
292
     0
297
     0
 46
0.18
 94
-1056964608
 47
1.0
 49
1.0
140
1.0
293
     1
141
0.0
294
     1
177
     0
142
1.0
295
     0
296
     0
143
0.125
271
     0
272
     9
273
     9
298
     1
  0
MLINESTYLE
  5
60
102
{ACAD_REACTORS
330
5F
102
}
330
5F
100
AcDbMlineStyle
  2
STANDARD
 70
     0
  3

 62
   256
 51
90.0
 52
90.0
 71
     2
 49
0.5
 62
   256
  6
BYLAYER
 49
-0.5
 62
   256
  6
BYLAYER
  0
ACDBPLACEHOLDER
  5
F
102
{ACAD_REACTORS
330
E
102
}
330
E
  0
SCALE
  5
43
102
{ACAD_REACTORS
330
42
102
}
330
42
100
AcDbScale
 70
     0
300
1:1
140
1.0
141
1.0
290
     1
  0
SCALE
  5
44
102
{ACAD_REACTORS
330
42
102
}
330
42
100
AcDbScale
 70
     0
300
1/128" = 1'-0"
140
0.0078125
141
12.0
290
     0
  0
SCALE
  5
45
102
{ACAD_REACTORS
330
42
102
}
330
42
100
AcDbScale
 70
     0
300
1/64" = 1'-0"
140
0.015625
141
12.0
290
     0
  0
SCALE
  5
46
102
{ACAD_REACTORS
330
42
102
}
330
42
100
AcDbScale
 70
     0
300
1/32" = 1'-0"
140
0.03125
141
12.0
290
     0
  0
SCALE
  5
47
102
{ACAD_REACTORS
330
42
102
}
330
42
100
AcDbScale
 70
     0
300
1/16" = 1'-0"
140
0.0625
141
12.0
290
     0
  0
SCALE
  5
48
102
{ACAD_REACTORS
330
42
102
}
330
42
100
AcDbScale
 70
     0
300
3/32" = 1'-0"
140
0.09375
141
12.0
290
     0
  0
SCALE
  5
49
102
{ACAD_REACTORS
330
42
102
}
330
42
100
AcDbScale
 70
     0
300
1/8" = 1'-0"
140
0.125
141
12.0
290
     0
  0
SCALE
  5
4A
102
{ACAD_REACTORS
330
42
102
}
330
42
100
AcDbScale
 70
     0
300
3/16" = 1'-0"
140
0.1875
141
12.0
290
     0
  0
SCALE
  5
4B
102
{ACAD_REACTORS
330
42
102
}
330
42
100
AcDbScale
 70
     0
300
1/4" = 1'-0"
140
0.25
141
12.0
290
     0
  0
SCALE
  5
4C
102
{ACAD_REACTORS
330
42
102
}
330
42
100
AcDbScale
 70
     0
300
3/8" = 1'-0"
140
0.375
141
12.0
290
     0
  0
SCALE
  5
4D
102
{ACAD_REACTORS
330
42
102
}
330
42
100
AcDbScale
 70
     0
300
1/2" = 1'-0"
140
0.5
141
12.0
290
     0
  0
SCALE
  5
4E
102
{ACAD_REACTORS
330
42
102
}
330
42
100
AcDbScale
 70
     0
300
3/4" = 1'-0"
140
0.75
141
12.0
290
     0
  0
SCALE
  5
4F
102
{ACAD_REACTORS
330
42
102
}
330
42
100
AcDbScale
 70
     0
300
1" = 1'-0"
140
1.0
141
12.0
290
     0
  0
SCALE
  5
50
102
{ACAD_REACTORS
330
42
102
}
330
42
100
AcDbScale
 70
     0
300
1-1/2" = 1'-0"
140
1.5
141
12.0
290
     0
  0
SCALE
  5
51
102
{ACAD_REACTORS
330
42
102
}
330
42
100
AcDbScale
 70
     0
300
3" = 1'-0"
140
3.0
141
12.0
290
     0
  0
SCALE
  5
52
102
{ACAD_REACTORS
330
42
102
}
330
42
100
AcDbScale
 70
     0
300
6" = 1'-0"
140
6.0
141
12.0
290
     0
  0
SCALE
  5
53
102
{ACAD_REACTORS
330
42
102
}
330
42
100
AcDbScale
 70
     0
300
1'-0" = 1'-0"
140
12.0
141
12.0
290
     0
  0
ACDBSECTIONVIEWSTYLE
  5
69
102
{ACAD_XDICTIONARY
360
13F
102
}
102
{ACAD_REACTORS
330
68
102
}
330
68
100
AcDbModelDocViewStyle
 70
     0
  3
Imperial24
290
     0
100
AcDbSectionViewStyle
 70
     0
 71
     0
 90
       78
 71
     1
340
55
 62
   256
 40
0.24
340
0
340
0
 62
   256
 40
0.24
300
I, O, Q, S, X, Z
 40
0.48
 90
        3
 40
0.18
 90
        1
 71
     2
340
5D
 90
       25
 62
   256
340
5D
 90
       50
 62
   256
 40
0.24
 40
0.0
 40
0.24
 71
     3
340
55
 62
   256
 40
0.24
 90
        1
 40
0.75
 90
        1
300
%<\AcVar ViewType \f "%tc1">% %<\AcVar ViewSectionStartId>%-%<\AcVar ViewSectionEndId>%\PSCALE %<\AcVar ViewScale \f "%sn">%
 71
     4
 62
   256
 62
   257
300
ANSI31
 40
1.0
 90
        0
290
     0
290
     0
 90
        6
 40
0.0
 40
1.570796326794896
 40
0.2617993877991494
 40
1.308996938995747
 40
-0.2617993877991494
 40
1.832595714594046
  0
TABLESTYLE
  5
65
102
{ACAD_XDICTIONARY
360
13C
102
}
102
{ACAD_REACTORS
330
64
102
}
330
64
100
AcDbTableStyle
280
     0
  3
Standard
 70
     0
 71
     0
 40
0.06
 41
0.06
280
     0
281
     0
  7
Standard
140
0.18
170
     2
 62
     0
 63
     7
283
     0
 90
      512
 91
        0
  1

274
    -2
284
     1
 64
     0
275
    -2
285
     1
 65
     0
276
    -2
286
     1
 66
     0
277
    -2
287
     1
 67
     0
278
    -2
288
     1
 68
     0
279
    -2
289
     1
 69
     0
  7
Standard
140
0.25
170
     5
 62
     0
 63
     7
283
     0
 90
      512
 91
        0
  1

274
    -2
284
     1
 64
     0
275
    -2
285
     1
 65
     0
276
    -2
286
     1
 66
     0
277
    -2
287
     1
 67
     0
278
    -2
288
     1
 68
     0
279
    -2
289
     1
 69
     0
  7
Standard
140
0.18
170
     5
 62
     0
 63
     7
283
     0
 90
      512
 91
        0
  1

274
    -2
284
     1
 64
     0
275
    -2
285
     1
 65
     0
276
    -2
286
     1
 66
     0
277
    -2
287
     1
 67
     0
278
    -2
288
     1
 68
     0
279
    -2
289
     1
 69
     0
  0
VISUALSTYLE
  5
2F
102
{ACAD_REACTORS
330
29
102
}
330
29
100
AcDbVisualStyle
  2
2dWireframe
 70
     4
177
     3
291
     0
 70
    58
 90
        0
176
     1
 90
        2
176
     1
 90
        0
176
     1
 90
        0
176
     1
 40
0.6
176
     1
 40
30.0
176
     1
 62
     7
420
 16777215
176
     1
 90
        1
176
     1
 90
        4
176
     1
 62
     7
176
     1
 62
   257
176
     1
 90
        1
176
     1
 90
        1
176
     1
 40
1.0
176
     1
 90
        0
176
     1
 62
   257
176
     1
 40
1.0
176
     1
 90
        1
176
     1
 90
        6
176
     1
 90
        2
176
     1
 62
     7
176
     1
 90
        5
176
     1
 90
        0
176
     1
 90
        0
176
     1
290
     0
176
     1
 90
        1
176
     1
 40
0.0
176
     1
 90
        0
176
     1
290
     1
176
     1
290
     1
176
     1
290
     0
176
     1
290
     0
176
     1
290
     0
176
     1
290
     0
176
     1
290
     0
176
     1
290
     0
176
     1
290
     0
176
     1
 90
       50
176
     1
 40
0.0
176
     1
 40
1.0
176
     1
 90
        0
176
     1
 62
    18
420
        0
176
     1
 90
       50
176
     1
 90
        3
176
     1
 62
     5
420
      255
176
     1
290
     0
176
     1
 90
       50
176
     1
 90
       50
176
     1
 90
       50
176
     1
290
     0
176
     1
 90
       50
176
     1
 62
   256
176
     0
 40
1.0
176
     0
 90
        2
176
     1
  1
strokes_ogs.tif
176
     1
290
     0
176
     1
 40
1.0
176
     1
 40
1.0
176
     1
1001
ACAD
1000
AcDbSavedByObjectVersion
1070
     0
  0
VISUALSTYLE
  5
2E
102
{ACAD_REACTORS
330
29
102
}
330
29
100
AcDbVisualStyle
  2
Basic
 70
     7
177
     3
291
     1
 70
    58
 90
        1
176
     1
 90
        0
176
     1
 90
        1
176
     1
 90
        0
176
     1
 40
0.6
176
     1
 40
30.0
176
     1
 62
     7
420
 16777215
176
     1
 90
        0
176
     1
 90
        4
176
     1
 62
     7
176
     1
 62
   257
176
     1
 90
        1
176
     1
 90
        1
176
     1
 40
1.0
176
     1
 90
        8
176
     1
 62
     7
176
     1
 40
1.0
176
     1
 90
        1
176
     1
 90
        6
176
     1
 90
        2
176
     1
 62
     7
176
     1
 90
        5
176
     1
 90
        0
176
     1
 90
        0
176
     1
290
     0
176
     1
 90
        1
176
     1
 40
0.0
176
     1
 90
        0
176
     1
290
     0
176
     1
290
     1
176
     1
290
     1
176
     1
290
     0
176
     1
290
     0
176
     1
290
     0
176
     1
290
     0
176
     1
290
     0
176
     1
290
     0
176
     1
 90
       50
176
     1
 40
0.0
176
     1
 40
1.0
176
     1
 90
        0
176
     1
 62
    18
420
        0
176
     1
 90
       50
176
     1
 90
        3
176
     1
 62
     5
420
      255
176
     1
290
     0
176
     1
 90
       50
176
     1
 90
       50
176
     1
 90
       50
176
     1
290
     0
176
     1
 90
       50
176
     1
 62
   256
176
     0
 40
1.0
176
     0
 90
        2
176
     1
  1
strokes_ogs.tif
176
     1
290
     0
176
     1
 40
1.0
176
     1
 40
1.0
176
     1
1001
ACAD
1000
AcDbSavedByObjectVersion
1070
     0
  0
VISUALSTYLE
  5
35
102
{ACAD_REACTORS
330
29
102
}
330
29
100
AcDbVisualStyle
  2
Brighten
 70
    12
177
     3
291
     1
 70
    58
 90
        2
176
     1
 90
        2
176
     1
 90
        0
176
     1
 90
        0
176
     1
 40
0.6
176
     1
 40
30.0
176
     1
 62
     7
420
 16777215
176
     1
 90
        1
176
     1
 90
        4
176
     1
 62
     7
176
     1
 62
   257
176
     1
 90
        1
176
     1
 90
        1
176
     1
 40
1.0
176
     1
 90
        8
176
     1
 62
     7
176
     1
 40
1.0
176
     1
 90
        1
176
     1
 90
        6
176
     1
 90
        2
176
     1
 62
     7
176
     1
 90
        5
176
     1
 90
        0
176
     1
 90
        0
176
     1
290
     0
176
     1
 90
        1
176
     1
 40
50.0
176
     1
 90
        0
176
     1
290
     0
176
     1
290
     1
176
     1
290
     1
176
     1
290
     0
176
     1
290
     0
176
     1
290
     0
176
     1
290
     0
176
     1
290
     0
176
     1
290
     0
176
     1
 90
       50
176
     1
 40
0.0
176
     1
 40
1.0
176
     1
 90
        0
176
     1
 62
    18
420
        0
176
     1
 90
       50
176
     1
 90
        3
176
     1
 62
     5
420
      255
176
     1
290
     0
176
     1
 90
       50
176
     1
 90
       50
176
     1
 90
       50
176
     1
290
     0
176
     1
 90
       50
176
     1
 62
   256
176
     0
 40
1.0
176
     0
 90
        2
176
     1
  1
strokes_ogs.tif
176
     1
290
     0
176
     1
 40
1.0
176
     1
 40
1.0
176
     1
1001
ACAD
1000
AcDbSavedByObjectVersion
1070
     0
  0
VISUALSTYLE
  5
39
102
{ACAD_REACTORS
330
29
102
}
330
29
100
AcDbVisualStyle
  2
ColorChange
 70
    16
177
     3
291
     1
 70
    58
 90
        2
176
     1
 90
        2
176
     1
 90
        3
176
     1
 90
        0
176
     1
 40
0.6
176
     1
 40
30.0
176
     1
 62
     8
420
  8421504
176
     1
 90
        1
176
     1
 90
        4
176
     1
 62
     7
176
     1
 62
   257
176
     1
 90
        1
176
     1
 90
        1
176
     1
 40
1.0
176
     1
 90
        8
176
     1
 62
     8
420
  8421504
176
     1
 40
1.0
176
     1
 90
        1
176
     1
 90
        6
176
     1
 90
        2
176
     1
 62
     7
176
     1
 90
        5
176
     1
 90
        0
176
     1
 90
        0
176
     1
290
     0
176
     1
 90
        1
176
     1
 40
0.0
176
     1
 90
        0
176
     1
290
     0
176
     1
290
     1
176
     1
290
     1
176
     1
290
     0
176
     1
290
     0
176
     1
290
     0
176
     1
290
     0
176
     1
290
     0
176
     1
290
     0
176
     1
 90
       50
176
     1
 40
0.0
176
     1
 40
1.0
176
     1
 90
        0
176
     1
 62
    18
420
        0
176
     1
 90
       50
176
     1
 90
        3
176
     1
 62
     5
420
      255
176
     1
290
     0
176
     1
 90
       50
176
     1
 90
       50
176
     1
 90
       50
176
     1
290
     0
176
     1
 90
       50
176
     1
 62
   256
176
     0
 40
1.0
176
     0
 90
        2
176
     1
  1
strokes_ogs.tif
176
     1
290
     0
176
     1
 40
1.0
176
     1
 40
1.0
176
     1
1001
ACAD
1000
AcDbSavedByObjectVersion
1070
     0
  0
VISUALSTYLE
  5
32
102
{ACAD_REACTORS
330
29
102
}
330
29
100
AcDbVisualStyle
  2
Conceptual
 70
     9
177
     3
291
     0
 70
    58
 90
        3
176
     1
 90
        2
176
     1
 90
        0
176
     1
 90
        0
176
     1
 40
0.6
176
     1
 40
30.0
176
     1
 62
     7
420
 16777215
176
     1
 90
        2
176
     1
 90
        2
176
     1
 62
     7
176
     1
 62
   257
176
     1
 90
        1
176
     1
 90
        1
176
     1
 40
179.0
176
     1
 90
        8
176
     1
 62
     7
176
     1
 40
1.0
176
     1
 90
        1
176
     1
 90
        6
176
     1
 90
        2
176
     1
 62
     7
176
     1
 90
        3
176
     1
 90
        0
176
     1
 90
        0
176
     1
290
     0
176
     1
 90
        1
176
     1
 40
0.0
176
     1
 90
        0
176
     1
290
     0
176
     1
290
     1
176
     1
290
     1
176
     1
290
     0
176
     1
290
     0
176
     1
290
     0
176
     1
290
     0
176
     1
290
     0
176
     1
290
     0
176
     1
 90
       50
176
     1
 40
0.0
176
     1
 40
1.0
176
     1
 90
        0
176
     1
 62
    18
420
        0
176
     1
 90
       50
176
     1
 90
        3
176
     1
 62
     5
420
      255
176
     1
290
     0
176
     1
 90
       50
176
     1
 90
       50
176
     1
 90
       50
176
     1
290
     0
176
     1
 90
       50
176
     1
 62
   256
176
     0
 40
1.0
176
     0
 90
        2
176
     1
  1
strokes_ogs.tif
176
     1
290
     0
176
     1
 40
1.0
176
     1
 40
1.0
176
     1
1001
ACAD
1000
AcDbSavedByObjectVersion
1070
     0
  0
VISUALSTYLE
  5
34
102
{ACAD_REACTORS
330
29
102
}
330
29
100
AcDbVisualStyle
  2
Dim
 70
    11
177
     3
291
     1
 70
    58
 90
        2
176
     1
 90
        2
176
     1
 90
        0
176
     1
 90
        0
176
     1
 40
0.6
176
     1
 40
30.0
176
     1
 62
     7
420
 16777215
176
     1
 90
        1
176
     1
 90
        4
176
     1
 62
     7
176
     1
 62
   257
176
     1
 90
        1
176
     1
 90
        1
176
     1
 40
1.0
176
     1
 90
        8
176
     1
 62
     7
176
     1
 40
1.0
176
     1
 90
        1
176
     1
 90
        6
176
     1
 90
        2
176
     1
 62
     7
176
     1
 90
        5
176
     1
 90
        0
176
     1
 90
        0
176
     1
290
     0
176
     1
 90
        1
176
     1
 40
-50.0
176
     1
 90
        0
176
     1
290
     0
176
     1
290
     1
176
     1
290
     1
176
     1
290
     0
176
     1
290
     0
176
     1
290
     0
176
     1
290
     0
176
     1
290
     0
176
     1
290
     0
176
     1
 90
       50
176
     1
 40
0.0
176
     1
 40
1.0
176
     1
 90
        0
176
     1
 62
    18
420
        0
176
     1
 90
       50
176
     1
 90
        3
176
     1
 62
     5
420
      255
176
     1
290
     0
176
     1
 90
       50
176
     1
 90
       50
176
     1
 90
       50
176
     1
290
     0
176
     1
 90
       50
176
     1
 62
   256
176
     0
 40
1.0
176
     0
 90
        2
176
     1
  1
strokes_ogs.tif
176
     1
290
     0
176
     1
 40
1.0
176
     1
 40
1.0
176
     1
1001
ACAD
1000
AcDbSavedByObjectVersion
1070
     0
  0
VISUALSTYLE
  5
41
102
{ACAD_REACTORS
330
29
102
}
330
29
100
AcDbVisualStyle
  2
EdgeColorOff
 70
    22
177
     3
291
     1
 70
    58
 90
        2
176
     0
 90
        2
176
     0
 90
        0
176
     0
 90
        0
176
     0
 40
0.6
176
     0
 40
30.0
176
     0
 62
     7
420
 16777215
176
     0
 90
        1
176
     0
 90
        4
176
     0
 62
     7
176
     0
 62
   257
176
     0
 90
        1
176
     0
 90
        1
176
     0
 40
1.0
176
     0
 90
        8
176
     2
 62
     7
176
     0
 40
1.0
176
     0
 90
        1
176
     0
 90
        6
176
     0
 90
        2
176
     0
 62
     7
176
     0
 90
        5
176
     0
 90
        0
176
     0
 90
        0
176
     0
290
     0
176
     0
 90
        1
176
     0
 40
0.0
176
     0
 90
        0
176
     0
290
     0
176
     0
290
     1
176
     0
290
     1
176
     0
290
     0
176
     0
290
     0
176
     0
290
     0
176
     0
290
     0
176
     0
290
     0
176
     0
290
     0
176
     0
 90
       50
176
     0
 40
0.0
176
     0
 40
1.0
176
     0
 90
        0
176
     0
 62
    18
420
        0
176
     0
 90
       50
176
     0
 90
        3
176
     0
 62
     5
420
      255
176
     0
290
     0
176
     0
 90
       50
176
     0
 90
       50
176
     0
 90
       50
176
     0
290
     0
176
     0
 90
       50
176
     0
 62
   256
176
     0
 40
1.0
176
     0
 90
        2
176
     0
  1
strokes_ogs.tif
176
     0
290
     0
176
     0
 40
1.0
176
     0
 40
1.0
176
     0
1001
ACAD
1000
AcDbSavedByObjectVersion
1070
     0
  0
VISUALSTYLE
  5
38
102
{ACAD_REACTORS
330
29
102
}
330
29
100
AcDbVisualStyle
  2
Facepattern
 70
    15
177
     3
291
     1
 70
    58
 90
        2
176
     1
 90
        2
176
     1
 90
        0
176
     1
 90
        0
176
     1
 40
0.6
176
     1
 40
30.0
176
     1
 62
     7
420
 16777215
176
     1
 90
        1
176
     1
 90
        4
176
     1
 62
     7
176
     1
 62
   257
176
     1
 90
        1
176
     1
 90
        1
176
     1
 40
1.0
176
     1
 90
        8
176
     1
 62
     7
176
     1
 40
1.0
176
     1
 90
        1
176
     1
 90
        6
176
     1
 90
        2
176
     1
 62
     7
176
     1
 90
        5
176
     1
 90
        0
176
     1
 90
        0
176
     1
290
     0
176
     1
 90
        1
176
     1
 40
0.0
176
     1
 90
        0
176
     1
290
     0
176
     1
290
     1
176
     1
290
     1
176
     1
290
     0
176
     1
290
     0
176
     1
290
     0
176
     1
290
     0
176
     1
290
     0
176
     1
290
     0
176
     1
 90
       50
176
     1
 40
0.0
176
     1
 40
1.0
176
     1
 90
        0
176
     1
 62
    18
420
        0
176
     1
 90
       50
176
     1
 90
        3
176
     1
 62
     5
420
      255
176
     1
290
     0
176
     1
 90
       50
176
     1
 90
       50
176
     1
 90
       50
176
     1
290
     0
176
     1
 90
       50
176
     1
 62
   256
176
     0
 40
1.0
176
     0
 90
        2
176
     1
  1
strokes_ogs.tif
176
     1
290
     0
176
     1
 40
1.0
176
     1
 40
1.0
176
     1
1001
ACAD
1000
AcDbSavedByObjectVersion
1070
     0
  0
VISUALSTYLE
  5
2A
102
{ACAD_REACTORS
330
29
102
}
330
29
100
AcDbVisualStyle
  2
Flat
 70
     0
177
     3
291
     1
 70
    58
 90
        2
176
     1
 90
        1
176
     1
 90
        1
176
     1
 90
        2
176
     1
 40
0.6
176
     1
 40
30.0
176
     1
 62
     7
420
 16777215
176
     1
 90
        0
176
     1
 90
        0
176
     1
 62
     7
176
     1
 62
   257
176
     1
 90
        1
176
     1
 90
        1
176
     1
 40
1.0
176
     1
 90
        8
176
     1
 62
     7
176
     1
 40
1.0
176
     1
 90
        1
176
     1
 90
        6
176
     1
 90
        2
176
     1
 62
     7
176
     1
 90
        5
176
     1
 90
        0
176
     1
 90
        0
176
     1
290
     0
176
     1
 90
       13
176
     1
 40
0.0
176
     1
 90
        0
176
     1
290
     0
176
     1
290
     1
176
     1
290
     1
176
     1
290
     0
176
     1
290
     0
176
     1
290
     0
176
     1
290
     0
176
     1
290
     0
176
     1
290
     0
176
     1
 90
       50
176
     1
 40
0.0
176
     1
 40
1.0
176
     1
 90
        0
176
     1
 62
    18
420
        0
176
     1
 90
       50
176
     1
 90
        3
176
     1
 62
     5
420
      255
176
     1
290
     0
176
     1
 90
       50
176
     1
 90
       50
176
     1
 90
       50
176
     1
290
     0
176
     1
 90
       50
176
     1
 62
   256
176
     0
 40
1.0
176
     0
 90
        2
176
     1
  1
strokes_ogs.tif
176
     1
290
     0
176
     1
 40
1.0
176
     1
 40
1.0
176
     1
1001
ACAD
1000
AcDbSavedByObjectVersion
1070
     0
  0
VISUALSTYLE
  5
2B
102
{ACAD_REACTORS
330
29
102
}
330
29
100
AcDbVisualStyle
  2
FlatWithEdges
 70
     1
177
     3
291
     1
 70
    58
 90
        2
176
     1
 90
        1
176
     1
 90
        1
176
     1
 90
        2
176
     1
 40
0.6
176
     1
 40
30.0
176
     1
 62
     7
420
 16777215
176
     1
 90
        1
176
     1
 90
        0
176
     1
 62
     7
176
     1
 62
   257
176
     1
 90
        1
176
     1
 90
        1
176
     1
 40
1.0
176
     1
 90
        0
176
     1
 62
   257
176
     1
 40
1.0
176
     1
 90
        1
176
     1
 90
        6
176
     1
 90
        2
176
     1
 62
     7
176
     1
 90
        5
176
     1
 90
        0
176
     1
 90
        0
176
     1
290
     0
176
     1
 90
       13
176
     1
 40
0.0
176
     1
 90
        0
176
     1
290
     0
176
     1
290
     1
176
     1
290
     1
176
     1
290
     0
176
     1
290
     0
176
     1
290
     0
176
     1
290
     0
176
     1
290
     0
176
     1
290
     0
176
     1
 90
       50
176
     1
 40
0.0
176
     1
 40
1.0
176
     1
 90
        0
176
     1
 62
    18
420
        0
176
     1
 90
       50
176
     1
 90
        3
176
     1
 62
     5
420
      255
176
     1
290
     0
176
     1
 90
       50
176
     1
 90
       50
176
     1
 90
       50
176
     1
290
     0
176
     1
 90
       50
176
     1
 62
   256
176
     0
 40
1.0
176
     0
 90
        2
176
     1
  1
strokes_ogs.tif
176
     1
290
     0
176
     1
 40
1.0
176
     1
 40
1.0
176
     1
1001
ACAD
1000
AcDbSavedByObjectVersion
1070
     0
  0
VISUALSTYLE
  5
2C
102
{ACAD_REACTORS
330
29
102
}
330
29
100
AcDbVisualStyle
  2
Gouraud
 70
     2
177
     3
291
     1
 70
    58
 90
        2
176
     1
 90
        2
176
     1
 90
        1
176
     1
 90
        2
176
     1
 40
0.6
176
     1
 40
30.0
176
     1
 62
     7
420
 16777215
176
     1
 90
        0
176
     1
 90
        0
176
     1
 62
     7
176
     1
 62
   257
176
     1
 90
        1
176
     1
 90
        1
176
     1
 40
1.0
176
     1
 90
        0
176
     1
 62
     7
176
     1
 40
1.0
176
     1
 90
        1
176
     1
 90
        6
176
     1
 90
        2
176
     1
 62
     7
176
     1
 90
        5
176
     1
 90
        0
176
     1
 90
        0
176
     1
290
     0
176
     1
 90
       13
176
     1
 40
0.0
176
     1
 90
        0
176
     1
290
     0
176
     1
290
     1
176
     1
290
     1
176
     1
290
     0
176
     1
290
     0
176
     1
290
     0
176
     1
290
     0
176
     1
290
     0
176
     1
290
     0
176
     1
 90
       50
176
     1
 40
0.0
176
     1
 40
1.0
176
     1
 90
        0
176
     1
 62
    18
420
        0
176
     1
 90
       50
176
     1
 90
        3
176
     1
 62
     5
420
      255
176
     1
290
     0
176
     1
 90
       50
176
     1
 90
       50
176
     1
 90
       50
176
     1
290
     0
176
     1
 90
       50
176
     1
 62
   256
176
     0
 40
1.0
176
     0
 90
        2
176
     1
  1
strokes_ogs.tif
176
     1
290
     0
176
     1
 40
1.0
176
     1
 40
1.0
176
     1
1001
ACAD
1000
AcDbSavedByObjectVersion
1070
     0
  0
VISUALSTYLE
  5
2D
102
{ACAD_REACTORS
330
29
102
}
330
29
100
AcDbVisualStyle
  2
GouraudWithEdges
 70
     3
177
     3
291
     1
 70
    58
 90
        2
176
     1
 90
        2
176
     1
 90
        1
176
     1
 90
        2
176
     1
 40
0.6
176
     1
 40
30.0
176
     1
 62
     7
420
 16777215
176
     1
 90
        1
176
     1
 90
        0
176
     1
 62
     7
176
     1
 62
   257
176
     1
 90
        1
176
     1
 90
        1
176
     1
 40
1.0
176
     1
 90
        0
176
     1
 62
   257
176
     1
 40
1.0
176
     1
 90
        1
176
     1
 90
        6
176
     1
 90
        2
176
     1
 62
     7
176
     1
 90
        5
176
     1
 90
        0
176
     1
 90
        0
176
     1
290
     0
176
     1
 90
       13
176
     1
 40
0.0
176
     1
 90
        0
176
     1
290
     0
176
     1
290
     1
176
     1
290
     1
176
     1
290
     0
176
     1
290
     0
176
     1
290
     0
176
     1
290
     0
176
     1
290
     0
176
     1
290
     0
176
     1
 90
       50
176
     1
 40
0.0
176
     1
 40
1.0
176
     1
 90
        0
176
     1
 62
    18
420
        0
176
     1
 90
       50
176
     1
 90
        3
176
     1
 62
     5
420
      255
176
     1
290
     0
176
     1
 90
       50
176
     1
 90
       50
176
     1
 90
       50
176
     1
290
     0
176
     1
 90
       50
176
     1
 62
   256
176
     0
 40
1.0
176
     0
 90
        2
176
     1
  1
strokes_ogs.tif
176
     1
290
     0
176
     1
 40
1.0
176
     1
 40
1.0
176
     1
1001
ACAD
1000
AcDbSavedByObjectVersion
1070
     0
  0
VISUALSTYLE
  5
31
102
{ACAD_REACTORS
330
29
102
}
330
29
100
AcDbVisualStyle
  2
Hidden
 70
     6
177
     3
291
     0
 70
    58
 90
        1
176
     1
 90
        2
176
     1
 90
        2
176
     1
 90
        0
176
     1
 40
0.6
176
     1
 40
30.0
176
     1
 62
     7
420
 16777215
176
     1
 90
        2
176
     1
 90
        2
176
     1
 62
     7
176
     1
 62
   257
176
     1
 90
        2
176
     1
 90
        1
176
     1
 40
40.0
176
     1
 90
        0
176
     1
 62
   257
176
     1
 40
1.0
176
     1
 90
        1
176
     1
 90
        6
176
     1
 90
        2
176
     1
 62
     7
176
     1
 90
        3
176
     1
 90
        0
176
     1
 90
        0
176
     1
290
     0
176
     1
 90
        1
176
     1
 40
0.0
176
     1
 90
        0
176
     1
290
     0
176
     1
290
     1
176
     1
290
     1
176
     1
290
     0
176
     1
290
     0
176
     1
290
     0
176
     1
290
     0
176
     1
290
     0
176
     1
290
     0
176
     1
 90
       50
176
     1
 40
0.0
176
     1
 40
1.0
176
     1
 90
        0
176
     1
 62
    18
420
        0
176
     1
 90
       50
176
     1
 90
        3
176
     1
 62
     5
420
      255
176
     1
290
     0
176
     1
 90
       50
176
     1
 90
       50
176
     1
 90
       50
176
     1
290
     0
176
     1
 90
       50
176
     1
 62
   256
176
     0
 40
1.0
176
     0
 90
        2
176
     1
  1
strokes_ogs.tif
176
     1
290
     0
176
     1
 40
1.0
176
     1
 40
1.0
176
     1
1001
ACAD
1000
AcDbSavedByObjectVersion
1070
     0
  0
VISUALSTYLE
  5
3F
102
{ACAD_REACTORS
330
29
102
}
330
29
100
AcDbVisualStyle
  2
JitterOff
 70
    20
177
     3
291
     1
 70
    58
 90
        2
176
     0
 90
        2
176
     0
 90
        0
176
     0
 90
        0
176
     0
 40
0.6
176
     0
 40
30.0
176
     0
 62
     7
420
 16777215
176
     0
 90
        1
176
     0
 90
        4
176
     0
 62
     7
176
     0
 62
   257
176
     0
 90
        1
176
     0
 90
        1
176
     0
 40
1.0
176
     0
 90
       10
176
     2
 62
     7
176
     0
 40
1.0
176
     0
 90
        1
176
     0
 90
        6
176
     0
 90
        2
176
     0
 62
     7
176
     0
 90
        5
176
     0
 90
        0
176
     0
 90
        0
176
     0
290
     0
176
     0
 90
        1
176
     0
 40
0.0
176
     0
 90
        0
176
     0
290
     0
176
     0
290
     1
176
     0
290
     1
176
     0
290
     0
176
     0
290
     0
176
     0
290
     0
176
     0
290
     0
176
     0
290
     0
176
     0
290
     0
176
     0
 90
       50
176
     0
 40
0.0
176
     0
 40
1.0
176
     0
 90
        0
176
     0
 62
    18
420
        0
176
     0
 90
       50
176
     0
 90
        3
176
     0
 62
     5
420
      255
176
     0
290
     0
176
     0
 90
       50
176
     0
 90
       50
176
     0
 90
       50
176
     0
290
     0
176
     0
 90
       50
176
     0
 62
   256
176
     0
 40
1.0
176
     0
 90
        2
176
     0
  1
strokes_ogs.tif
176
     0
290
     0
176
     0
 40
1.0
176
     0
 40
1.0
176
     0
1001
ACAD
1000
AcDbSavedByObjectVersion
1070
     0
  0
VISUALSTYLE
  5
37
102
{ACAD_REACTORS
330
29
102
}
330
29
100
AcDbVisualStyle
  2
Linepattern
 70
    14
177
     3
291
     1
 70
    58
 90
        2
176
     1
 90
        2
176
     1
 90
        0
176
     1
 90
        0
176
     1
 40
0.6
176
     1
 40
30.0
176
     1
 62
     7
420
 16777215
176
     1
 90
        1
176
     1
 90
        4
176
     1
 62
     7
176
     1
 62
   257
176
     1
 90
        7
176
     1
 90
        7
176
     1
 40
1.0
176
     1
 90
        8
176
     1
 62
     7
176
     1
 40
1.0
176
     1
 90
        1
176
     1
 90
        6
176
     1
 90
        2
176
     1
 62
     7
176
     1
 90
        5
176
     1
 90
        0
176
     1
 90
        0
176
     1
290
     0
176
     1
 90
        1
176
     1
 40
0.0
176
     1
 90
        0
176
     1
290
     0
176
     1
290
     1
176
     1
290
     1
176
     1
290
     0
176
     1
290
     0
176
     1
290
     0
176
     1
290
     0
176
     1
290
     0
176
     1
290
     0
176
     1
 90
       50
176
     1
 40
0.0
176
     1
 40
1.0
176
     1
 90
        0
176
     1
 62
    18
420
        0
176
     1
 90
       50
176
     1
 90
        3
176
     1
 62
     5
420
      255
176
     1
290
     0
176
     1
 90
       50
176
     1
 90
       50
176
     1
 90
       50
176
     1
290
     0
176
     1
 90
       50
176
     1
 62
   256
176
     0
 40
1.0
176
     0
 90
        2
176
     1
  1
strokes_ogs.tif
176
     1
290
     0
176
     1
 40
1.0
176
     1
 40
1.0
176
     1
1001
ACAD
1000
AcDbSavedByObjectVersion
1070
     0
  0
VISUALSTYLE
  5
40
102
{ACAD_REACTORS
330
29
102
}
330
29
100
AcDbVisualStyle
  2
OverhangOff
 70
    21
177
     3
291
     1
 70
    58
 90
        2
176
     0
 90
        2
176
     0
 90
        0
176
     0
 90
        0
176
     0
 40
0.6
176
     0
 40
30.0
176
     0
 62
     7
420
 16777215
176
     0
 90
        1
176
     0
 90
        4
176
     0
 62
     7
176
     0
 62
   257
176
     0
 90
        1
176
     0
 90
        1
176
     0
 40
1.0
176
     0
 90
        9
176
     2
 62
     7
176
     0
 40
1.0
176
     0
 90
        1
176
     0
 90
        6
176
     0
 90
        2
176
     0
 62
     7
176
     0
 90
        5
176
     0
 90
        0
176
     0
 90
        0
176
     0
290
     0
176
     0
 90
        1
176
     0
 40
0.0
176
     0
 90
        0
176
     0
290
     0
176
     0
290
     1
176
     0
290
     1
176
     0
290
     0
176
     0
290
     0
176
     0
290
     0
176
     0
290
     0
176
     0
290
     0
176
     0
290
     0
176
     0
 90
       50
176
     0
 40
0.0
176
     0
 40
1.0
176
     0
 90
        0
176
     0
 62
    18
420
        0
176
     0
 90
       50
176
     0
 90
        3
176
     0
 62
     5
420
      255
176
     0
290
     0
176
     0
 90
       50
176
     0
 90
       50
176
     0
 90
       50
176
     0
290
     0
176
     0
 90
       50
176
     0
 62
   256
176
     0
 40
1.0
176
     0
 90
        2
176
     0
  1
strokes_ogs.tif
176
     0
290
     0
176
     0
 40
1.0
176
     0
 40
1.0
176
     0
1001
ACAD
1000
AcDbSavedByObjectVersion
1070
     0
  0
VISUALSTYLE
  5
33
102
{ACAD_REACTORS
330
29
102
}
330
29
100
AcDbVisualStyle
  2
Realistic
 70
     8
177
     3
291
     0
 70
    58
 90
        2
176
     1
 90
        3
176
     1
 90
        0
176
     1
 90
        2
176
     1
 40
0.6
176
     1
 40
30.0
176
     1
 62
     7
420
 16777215
176
     1
 90
        0
176
     1
 90
        0
176
     1
 62
     7
176
     1
 62
   257
176
     1
 90
        1
176
     1
 90
        1
176
     1
 40
1.0
176
     1
 90
        8
176
     1
 62
   257
176
     1
 40
1.0
176
     1
 90
        1
176
     1
 90
        6
176
     1
 90
        2
176
     1
 62
     7
176
     1
 90
        3
176
     1
 90
        0
176
     1
 90
        0
176
     1
290
     0
176
     1
 90
       13
176
     1
 40
0.0
176
     1
 90
        0
176
     1
290
     0
176
     1
290
     1
176
     1
290
     1
176
     1
290
     0
176
     1
290
     0
176
     1
290
     0
176
     1
290
     0
176
     1
290
     0
176
     1
290
     0
176
     1
 90
       50
176
     1
 40
0.0
176
     1
 40
1.0
176
     1
 90
        0
176
     1
 62
    18
420
        0
176
     1
 90
       50
176
     1
 90
        3
176
     1
 62
     5
420
      255
176
     1
290
     0
176
     1
 90
       50
176
     1
 90
       50
176
     1
 90
       50
176
     1
290
     0
176
     1
 90
       50
176
     1
 62
   256
176
     0
 40
1.0
176
     0
 90
        2
176
     1
  1
strokes_ogs.tif
176
     1
290
     0
176
     1
 40
1.0
176
     1
 40
1.0
176
     1
1001
ACAD
1000
AcDbSavedByObjectVersion
1070
     0
  0
VISUALSTYLE
  5
3E
102
{ACAD_REACTORS
330
29
102
}
330
29
100
AcDbVisualStyle
  2
Shaded
 70
    27
177
     3
291
     0
 70
    58
 90
        2
176
     1
 90
        2
176
     1
 90
        1
176
     1
 90
        2
176
     1
 40
0.6
176
     1
 40
30.0
176
     1
 62
     7
420
 16777215
176
     1
 90
        0
176
     1
 90
        4
176
     1
 62
     7
176
     1
 62
   257
176
     1
 90
        1
176
     1
 90
        1
176
     1
 40
1.0
176
     1
 90
        8
176
     1
 62
   257
176
     1
 40
1.0
176
     1
 90
        1
176
     1
 90
        6
176
     1
 90
        2
176
     1
 62
     8
420
  7895160
176
     1
 90
        3
176
     1
 90
        0
176
     1
 90
        0
176
     1
290
     0
176
     1
 90
        5
176
     1
 40
0.0
176
     1
 90
        0
176
     1
290
     0
176
     1
290
     1
176
     1
290
     1
176
     1
290
     0
176
     1
290
     0
176
     1
290
     0
176
     1
290
     0
176
     1
290
     0
176
     1
290
     0
176
     1
 90
       50
176
     1
 40
0.0
176
     1
 40
1.0
176
     1
 90
        0
176
     1
 62
    18
420
        0
176
     1
 90
       50
176
     1
 90
        3
176
     1
 62
     5
420
      255
176
     1
290
     0
176
     1
 90
       50
176
     1
 90
       50
176
     1
 90
       50
176
     1
290
     0
176
     1
 90
       50
176
     1
 62
   256
176
     0
 40
1.0
176
     0
 90
        2
176
     1
  1
strokes_ogs.tif
176
     1
290
     0
176
     1
 40
1.0
176
     1
 40
1.0
176
     1
1001
ACAD
1000
AcDbSavedByObjectVersion
1070
     0
  0
VISUALSTYLE
  5
3D
102
{ACAD_REACTORS
330
29
102
}
330
29
100
AcDbVisualStyle
  2
Shaded with edges
 70
    26
177
     3
291
     0
 70
    58
 90
        2
176
     1
 90
        2
176
     1
 90
        1
176
     1
 90
        2
176
     1
 40
0.6
176
     1
 40
30.0
176
     1
 62
     7
420
 16777215
176
     1
 90
        1
176
     1
 90
        2
176
     1
 62
     7
176
     1
 62
   257
176
     1
 90
        2
176
     1
 90
        1
176
     1
 40
1.0
176
     1
 90
        8
176
     1
 62
   257
176
     1
 40
1.0
176
     1
 90
        1
176
     1
 90
        6
176
     1
 90
        2
176
     1
 62
     7
176
     1
 90
        3
176
     1
 90
        0
176
     1
 90
        0
176
     1
290
     0
176
     1
 90
        5
176
     1
 40
0.0
176
     1
 90
        0
176
     1
290
     0
176
     1
290
     1
176
     1
290
     1
176
     1
290
     0
176
     1
290
     0
176
     1
290
     0
176
     1
290
     0
176
     1
290
     0
176
     1
290
     0
176
     1
 90
       50
176
     1
 40
0.0
176
     1
 40
1.0
176
     1
 90
        0
176
     1
 62
    18
420
        0
176
     1
 90
       50
176
     1
 90
        3
176
     1
 62
     5
420
      255
176
     1
290
     0
176
     1
 90
       50
176
     1
 90
       50
176
     1
 90
       50
176
     1
290
     0
176
     1
 90
       50
176
     1
 62
   256
176
     0
 40
1.0
176
     0
 90
        2
176
     1
  1
strokes_ogs.tif
176
     1
290
     0
176
     1
 40
1.0
176
     1
 40
1.0
176
     1
1001
ACAD
1000
AcDbSavedByObjectVersion
1070
     0
  0
VISUALSTYLE
  5
3A
102
{ACAD_REACTORS
330
29
102
}
330
29
100
AcDbVisualStyle
  2
Shades of Gray
 70
    23
177
     3
291
     0
 70
    58
 90
        2
176
     1
 90
        2
176
     1
 90
        3
176
     1
 90
        0
176
     1
 40
0.6
176
     1
 40
30.0
176
     1
 62
     7
420
 16777215
176
     1
 90
        2
176
     1
 90
        2
176
     1
 62
     7
176
     1
 62
     7
176
     1
 90
        1
176
     1
 90
        1
176
     1
 40
40.0
176
     1
 90
        8
176
     1
 62
     7
176
     1
 40
1.0
176
     1
 90
        1
176
     1
 90
        6
176
     1
 90
        2
176
     1
 62
     7
176
     1
 90
        3
176
     1
 90
        0
176
     1
 90
        0
176
     1
290
     0
176
     1
 90
        1
176
     1
 40
0.0
176
     1
 90
        0
176
     1
290
     0
176
     1
290
     1
176
     1
290
     1
176
     1
290
     0
176
     1
290
     0
176
     1
290
     0
176
     1
290
     0
176
     1
290
     0
176
     1
290
     0
176
     1
 90
       50
176
     1
 40
0.0
176
     1
 40
1.0
176
     1
 90
        0
176
     1
 62
    18
420
        0
176
     1
 90
       50
176
     1
 90
        3
176
     1
 62
     5
420
      255
176
     1
290
     0
176
     1
 90
       50
176
     1
 90
       50
176
     1
 90
       50
176
     1
290
     0
176
     1
 90
       50
176
     1
 62
   256
176
     0
 40
1.0
176
     0
 90
        2
176
     1
  1
strokes_ogs.tif
176
     1
290
     0
176
     1
 40
1.0
176
     1
 40
1.0
176
     1
1001
ACAD
1000
AcDbSavedByObjectVersion
1070
     0
  0
VISUALSTYLE
  5
3B
102
{ACAD_REACTORS
330
29
102
}
330
29
100
AcDbVisualStyle
  2
Sketchy
 70
    24
177
     3
291
     0
 70
    58
 90
        1
176
     1
 90
        2
176
     1
 90
        2
176
     1
 90
        0
176
     1
 40
0.6
176
     1
 40
30.0
176
     1
 62
     7
420
 16777215
176
     1
 90
        2
176
     1
 90
        2
176
     1
 62
     7
176
     1
 62
     7
176
     1
 90
        1
176
     1
 90
        1
176
     1
 40
40.0
176
     1
 90
       11
176
     1
 62
     7
176
     1
 40
1.0
176
     1
 90
        1
176
     1
 90
        6
176
     1
 90
        2
176
     1
 62
     7
176
     1
 90
        6
176
     1
 90
        0
176
     1
 90
        0
176
     1
290
     0
176
     1
 90
        1
176
     1
 40
0.0
176
     1
 90
        0
176
     1
290
     0
176
     1
290
     1
176
     1
290
     1
176
     1
290
     0
176
     1
290
     0
176
     1
290
     0
176
     1
290
     0
176
     1
290
     0
176
     1
290
     0
176
     1
 90
       50
176
     1
 40
0.0
176
     1
 40
1.0
176
     1
 90
        0
176
     1
 62
    18
420
        0
176
     1
 90
       50
176
     1
 90
        3
176
     1
 62
     5
420
      255
176
     1
290
     0
176
     1
 90
       50
176
     1
 90
       50
176
     1
 90
       50
176
     1
290
     0
176
     1
 90
       50
176
     1
 62
   256
176
     0
 40
1.0
176
     0
 90
        2
176
     1
  1
strokes_ogs.tif
176
     1
290
     0
176
     1
 40
1.0
176
     1
 40
1.0
176
     1
1001
ACAD
1000
AcDbSavedByObjectVersion
1070
     0
  0
VISUALSTYLE
  5
36
102
{ACAD_REACTORS
330
29
102
}
330
29
100
AcDbVisualStyle
  2
Thicken
 70
    13
177
     3
291
     1
 70
    58
 90
        2
176
     1
 90
        2
176
     1
 90
        0
176
     1
 90
        0
176
     1
 40
0.6
176
     1
 40
30.0
176
     1
 62
     7
420
 16777215
176
     1
 90
        1
176
     1
 90
        4
176
     1
 62
     7
176
     1
 62
   257
176
     1
 90
        1
176
     1
 90
        1
176
     1
 40
1.0
176
     1
 90
       12
176
     1
 62
     7
176
     1
 40
1.0
176
     1
 90
        1
176
     1
 90
        6
176
     1
 90
        2
176
     1
 62
     7
176
     1
 90
        5
176
     1
 90
        0
176
     1
 90
        0
176
     1
290
     0
176
     1
 90
        1
176
     1
 40
0.0
176
     1
 90
        0
176
     1
290
     0
176
     1
290
     1
176
     1
290
     1
176
     1
290
     0
176
     1
290
     0
176
     1
290
     0
176
     1
290
     0
176
     1
290
     0
176
     1
290
     0
176
     1
 90
       50
176
     1
 40
0.0
176
     1
 40
1.0
176
     1
 90
        0
176
     1
 62
    18
420
        0
176
     1
 90
       50
176
     1
 90
        3
176
     1
 62
     5
420
      255
176
     1
290
     0
176
     1
 90
       50
176
     1
 90
       50
176
     1
 90
       50
176
     1
290
     0
176
     1
 90
       50
176
     1
 62
   256
176
     0
 40
1.0
176
     0
 90
        2
176
     1
  1
strokes_ogs.tif
176
     1
290
     0
176
     1
 40
1.0
176
     1
 40
1.0
176
     1
1001
ACAD
1000
AcDbSavedByObjectVersion
1070
     0
  0
VISUALSTYLE
  5
30
102
{ACAD_REACTORS
330
29
102
}
330
29
100
AcDbVisualStyle
  2
Wireframe
 70
     5
177
     3
291
     0
 70
    58
 90
        0
176
     1
 90
        2
176
     1
 90
        0
176
     1
 90
        0
176
     1
 40
0.6
176
     1
 40
30.0
176
     1
 62
     7
420
 16777215
176
     1
 90
        1
176
     1
 90
        4
176
     1
 62
     7
176
     1
 62
   257
176
     1
 90
        1
176
     1
 90
        1
176
     1
 40
1.0
176
     1
 90
        0
176
     1
 62
   257
176
     1
 40
1.0
176
     1
 90
        1
176
     1
 90
        6
176
     1
 90
        2
176
     1
 62
     7
176
     1
 90
        3
176
     1
 90
        0
176
     1
 90
        0
176
     1
290
     0
176
     1
 90
        1
176
     1
 40
0.0
176
     1
 90
        0
176
     1
290
     0
176
     1
290
     1
176
     1
290
     1
176
     1
290
     0
176
     1
290
     0
176
     1
290
     0
176
     1
290
     0
176
     1
290
     0
176
     1
290
     0
176
     1
 90
       50
176
     1
 40
0.0
176
     1
 40
1.0
176
     1
 90
        0
176
     1
 62
    18
420
        0
176
     1
 90
       50
176
     1
 90
        3
176
     1
 62
     5
420
      255
176
     1
290
     0
176
     1
 90
       50
176
     1
 90
       50
176
     1
 90
       50
176
     1
290
     0
176
     1
 90
       50
176
     1
 62
   256
176
     0
 40
1.0
176
     0
 90
        2
176
     1
  1
strokes_ogs.tif
176
     1
290
     0
176
     1
 40
1.0
176
     1
 40
1.0
176
     1
1001
ACAD
1000
AcDbSavedByObjectVersion
1070
     0
  0
VISUALSTYLE
  5
3C
102
{ACAD_REACTORS
330
29
102
}
330
29
100
AcDbVisualStyle
  2
X-Ray
 70
    25
177
     3
291
     0
 70
    58
 90
        2
176
     1
 90
        2
176
     1
 90
        1
176
     1
 90
        1
176
     1
 40
0.5
176
     1
 40
30.0
176
     1
 62
     7
420
 16777215
176
     1
 90
        1
176
     1
 90
        0
176
     1
 62
     7
176
     1
 62
   257
176
     1
 90
        1
176
     1
 90
        1
176
     1
 40
1.0
176
     1
 90
        8
176
     1
 62
     7
176
     1
 40
1.0
176
     1
 90
        1
176
     1
 90
        6
176
     1
 90
        2
176
     1
 62
     7
176
     1
 90
        3
176
     1
 90
        0
176
     1
 90
        0
176
     1
290
     0
176
     1
 90
       13
176
     1
 40
0.0
176
     1
 90
        0
176
     1
290
     0
176
     1
290
     1
176
     1
290
     1
176
     1
290
     0
176
     1
290
     0
176
     1
290
     0
176
     1
290
     0
176
     1
290
     0
176
     1
290
     0
176
     1
 90
       50
176
     1
 40
0.0
176
     1
 40
1.0
176
     1
 90
        0
176
     1
 62
    18
420
        0
176
     1
 90
       50
176
     1
 90
        3
176
     1
 62
     5
420
      255
176
     1
290
     0
176
     1
 90
       50
176
     1
 90
       50
176
     1
 90
       50
176
     1
290
     0
176
     1
 90
       50
176
     1
 62
   256
176
     0
 40
1.0
176
     0
 90
        2
176
     1
  1
strokes_ogs.tif
176
     1
290
     0
176
     1
 40
1.0
176
     1
 40
1.0
176
     1
1001
ACAD
1000
AcDbSavedByObjectVersion
1070
     0
  0
DICTIONARYVAR
  5
13B
102
{ACAD_REACTORS
330
136
102
}
330
136
100
DictionaryVariables
280
     0
  1
1:1
  0
DICTIONARYVAR
  5
138
102
{ACAD_REACTORS
330
136
102
}
330
136
100
DictionaryVariables
280
     0
  1
STANDARD
  0
DICTIONARYVAR
  5
137
102
{ACAD_REACTORS
330
136
102
}
330
136
100
DictionaryVariables
280
     0
  1
STANDARD
  0
DICTIONARYVAR
  5
139
102
{ACAD_REACTORS
330
136
102
}
330
136
100
DictionaryVariables
280
     0
  1
Imperial24
  0
DICTIONARYVAR
  5
13A
102
{ACAD_REACTORS
330
136
102
}
330
136
100
DictionaryVariables
280
     0
  1
Imperial24
  0
DICTIONARY
  5
141
330
6B
100
AcDbDictionary
280
     1
281
     1
  3
ACAD_XREC_ROUNDTRIP
360
142
  0
DICTIONARY
  5
1A
330
19
100
AcDbDictionary
280
     1
281
     1
  3
BUMPTILE
360
1C
  3
DIFFUSETILE
360
1B
  3
OPACITYTILE
360
1F
  3
REFLECTIONTILE
360
1E
  3
REFRACTIONTILE
360
20
  3
SPECULARTILE
360
1D
  0
DICTIONARY
  5
12
330
11
100
AcDbDictionary
280
     1
281
     1
  3
BUMPTILE
360
14
  3
DIFFUSETILE
360
13
  3
OPACITYTILE
360
17
  3
REFLECTIONTILE
360
16
  3
REFRACTIONTILE
360
18
  3
SPECULARTILE
360
15
  0
DICTIONARY
  5
22
330
21
100
AcDbDictionary
280
     1
281
     1
  3
BUMPTILE
360
24
  3
DIFFUSETILE
360
23
  3
OPACITYTILE
360
27
  3
REFLECTIONTILE
360
26
  3
REFRACTIONTILE
360
28
  3
SPECULARTILE
360
25
  0
DICTIONARY
  5
13F
330
69
100
AcDbDictionary
280
     1
281
     1
  3
ACAD_XREC_ROUNDTRIP
360
140
  0
DICTIONARY
  5
13C
330
65
100
AcDbDictionary
280
     1
281
     1
  3
ACAD_ROUNDTRIP_2008_TABLESTYLE_CELLSTYLEMAP
360
13D
  0
XRECORD
  5
142
102
{ACAD_REACTORS
330
141
102
}
330
141
100
AcDbXrecord
280
     1
102
DISPLAYNAME
  1
Imperial24
102
FLAGS
 90
        0
  0
XRECORD
  5
1C
102
{ACAD_REACTORS
330
1A
102
}
330
1A
100
AcDbXrecord
280
     1
270
     1
271
     1
  0
XRECORD
  5
1B
102
{ACAD_REACTORS
330
1A
102
}
330
1A
100
AcDbXrecord
280
     1
270
     1
271
     1
  0
XRECORD
  5
1F
102
{ACAD_REACTORS
330
1A
102
}
330
1A
100
AcDbXrecord
280
     1
270
     1
271
     1
  0
XRECORD
  5
1E
102
{ACAD_REACTORS
330
1A
102
}
330
1A
100
AcDbXrecord
280
     1
270
     1
271
     1
  0
XRECORD
  5
20
102
{ACAD_REACTORS
330
1A
102
}
330
1A
100
AcDbXrecord
280
     1
270
     1
271
     1
  0
XRECORD
  5
1D
102
{ACAD_REACTORS
330
1A
102
}
330
1A
100
AcDbXrecord
280
     1
270
     1
271
     1
  0
XRECORD
  5
14
102
{ACAD_REACTORS
330
12
102
}
330
12
100
AcDbXrecord
280
     1
270
     1
271
     1
  0
XRECORD
  5
13
102
{ACAD_REACTORS
330
12
102
}
330
12
100
AcDbXrecord
280
     1
270
     1
271
     1
  0
XRECORD
  5
17
102
{ACAD_REACTORS
330
12
102
}
330
12
100
AcDbXrecord
280
     1
270
     1
271
     1
  0
XRECORD
  5
16
102
{ACAD_REACTORS
330
12
102
}
330
12
100
AcDbXrecord
280
     1
270
     1
271
     1
  0
XRECORD
  5
18
102
{ACAD_REACTORS
330
12
102
}
330
12
100
AcDbXrecord
280
     1
270
     1
271
     1
  0
XRECORD
  5
15
102
{ACAD_REACTORS
330
12
102
}
330
12
100
AcDbXrecord
280
     1
270
     1
271
     1
  0
XRECORD
  5
24
102
{ACAD_REACTORS
330
22
102
}
330
22
100
AcDbXrecord
280
     1
270
     1
271
     1
  0
XRECORD
  5
23
102
{ACAD_REACTORS
330
22
102
}
330
22
100
AcDbXrecord
280
     1
270
     1
271
     1
  0
XRECORD
  5
27
102
{ACAD_REACTORS
330
22
102
}
330
22
100
AcDbXrecord
280
     1
270
     1
271
     1
  0
XRECORD
  5
26
102
{ACAD_REACTORS
330
22
102
}
330
22
100
AcDbXrecord
280
     1
270
     1
271
     1
  0
XRECORD
  5
28
102
{ACAD_REACTORS
330
22
102
}
330
22
100
AcDbXrecord
280
     1
270
     1
271
     1
  0
XRECORD
  5
25
102
{ACAD_REACTORS
330
22
102
}
330
22
100
AcDbXrecord
280
     1
270
     1
271
     1
  0
XRECORD
  5
140
102
{ACAD_REACTORS
330
13F
102
}
330
13F
100
AcDbXrecord
280
     1
102
DISPLAYNAME
  1
Imperial24
102
FLAGS
 90
        0
  0
CELLSTYLEMAP
  5
13D
102
{ACAD_REACTORS
330
13C
102
}
330
13C
100
AcDbCellStyleMap
 90
        3
300
CELLSTYLE
  1
TABLEFORMAT_BEGIN
 90
        5
170
     1
 91
        0
 92
    32768
 62
   257
 93
        1
300
CONTENTFORMAT
  1
CONTENTFORMAT_BEGIN
 90
        0
 91
        0
 92
      512
 93
        0
300

 40
0.0
140
1.0
 94
        5
 62
     0
340
55
144
0.25
309
CONTENTFORMAT_END
171
     0
 94
        0
309
TABLEFORMAT_END
  1
CELLSTYLE_BEGIN
 90
        1
 91
        1
300
_TITLE
309
CELLSTYLE_END
300
CELLSTYLE
  1
TABLEFORMAT_BEGIN
 90
        5
170
     1
 91
        0
 92
        0
 62
   257
 93
        1
300
CONTENTFORMAT
  1
CONTENTFORMAT_BEGIN
 90
        0
 91
        0
 92
      512
 93
        0
300

 40
0.0
140
1.0
 94
        5
 62
     0
340
55
144
0.18
309
CONTENTFORMAT_END
171
     0
 94
        0
309
TABLEFORMAT_END
  1
CELLSTYLE_BEGIN
 90
        2
 91
        1
300
_HEADER
309
CELLSTYLE_END
300
CELLSTYLE
  1
TABLEFORMAT_BEGIN
 90
        5
170
     1
 91
        0
 92
        0
 62
   257
 93
        1
300
CONTENTFORMAT
  1
CONTENTFORMAT_BEGIN
 90
        0
 91
        0
 92
      512
 93
        0
300

 40
0.0
140
1.0
 94
        2
 62
     0
340
55
144
0.18
309
CONTENTFORMAT_END
171
     0
 94
        0
309
TABLEFORMAT_END
  1
CELLSTYLE_BEGIN
 90
        3
 91
        2
300
_DATA
309
CELLSTYLE_END
  0
ENDSEC
  0
EOF
